<svg width="3302" height="3301" viewBox="0 0 3302 3301" fill="none" xmlns="http://www.w3.org/2000/svg">
<path d="M0.115938 1692.98C0.137793 1692.98 0.158165 1692.97 0.175593 1692.95L120.138 1594.67C123.866 1591.62 129.098 1591.29 133.15 1593.89C147.061 1602.83 179.653 1623.76 208.104 1642.02C233.646 1658.42 266.834 1656.5 290.346 1637.31C304.794 1625.51 320.358 1612.81 334.19 1601.51C358.687 1581.5 394.09 1579.34 420.706 1596.44C432.272 1603.87 444.967 1612.02 457.429 1620.02C482.936 1636.39 516.076 1634.46 539.526 1615.25C554.973 1602.6 571.163 1589.35 585.332 1577.74C608.869 1558.45 642.178 1556.5 667.787 1572.93C679.842 1580.67 693.23 1589.26 706.606 1597.84C732.134 1614.23 765.311 1612.32 788.776 1593.1C804.482 1580.23 820.575 1567.04 834.695 1555.47C858.151 1536.25 891.294 1534.31 916.814 1550.69C928.93 1558.47 942.314 1567.07 955.856 1575.76C981.358 1592.13 1014.5 1590.22 1037.94 1571.01C1053.79 1558.03 1069.76 1544.94 1083.86 1533.38C1107.34 1514.13 1140.52 1512.22 1166.08 1528.61C1182.48 1539.12 1200.99 1551 1219.41 1562.8C1236.39 1573.7 1258.46 1572.41 1274.07 1559.62C1280.21 1554.58 1286.41 1549.5 1292.57 1544.45C1315.23 1525.88 1300.68 1488.09 1272.06 1481.83C1257.26 1478.59 1252 1467.45 1250.5 1452.38C1248.05 1427.73 1244.91 1396.13 1242.11 1368.02C1239.11 1337.8 1216.97 1312.96 1187.3 1306.5C1171.56 1303.07 1156.06 1299.7 1142 1296.63C1112.43 1290.17 1090.41 1265.42 1087.42 1235.3C1085.62 1217.1 1083.56 1196.43 1081.54 1176.08C1078.54 1145.9 1056.45 1121.08 1026.82 1114.62C1012.1 1111.41 996.37 1107.98 981.695 1104.78C951.967 1098.3 929.788 1073.38 926.777 1043.1C924.972 1024.94 922.91 1004.25 920.917 984.248C917.908 954.047 895.782 929.227 866.122 922.791C850.366 919.372 834.466 915.921 820.249 912.831C790.928 906.459 769.217 882.025 766.261 852.166C764.433 833.707 762.333 812.491 760.352 792.536C757.353 762.316 735.199 737.474 705.528 731C691.08 727.848 675.317 724.408 660.859 721.254C630.949 714.729 608.526 689.585 605.5 659.121C603.655 640.545 601.567 619.524 599.698 600.714C596.696 570.497 574.568 545.68 544.898 539.218C509.627 531.536 467.2 522.289 455.52 519.743C453.777 519.363 452.638 517.687 452.923 515.926C453.206 514.173 454.804 512.944 456.57 513.119L607.744 528.106C612.533 528.597 616.465 532.11 617.489 536.814L617.795 538.221L636.414 623.724C642.876 653.4 667.722 675.539 697.939 678.596C716.403 680.464 736.279 682.481 753.976 684.266C785.539 687.451 812.233 711.057 818.983 742.054C821.894 755.421 825.085 770.079 828.22 784.467C834.676 814.095 859.486 836.176 889.659 839.183C909.545 841.165 930.386 843.243 948.623 845.058C978.875 848.07 1003.79 870.21 1010.26 899.913C1013.32 913.916 1016.71 929.47 1020.09 945.014C1026.55 974.653 1051.37 996.758 1081.56 999.76C1101.74 1001.77 1122.42 1003.82 1140.57 1005.63C1170.76 1008.63 1195.57 1030.71 1202.03 1060.35C1205.09 1074.41 1208.48 1089.94 1211.9 1105.66C1218.36 1135.29 1243.17 1157.4 1273.36 1160.39C1293.75 1162.41 1314.3 1164.45 1332.44 1166.24C1362.6 1169.24 1387.34 1191.33 1393.81 1220.95C1397.97 1240 1402.68 1261.51 1407.36 1282.92C1411.68 1302.65 1428.21 1317.36 1448.31 1319.35C1456.21 1320.13 1464.19 1320.92 1472.12 1321.7C1501.3 1324.59 1517.73 1287.59 1501.91 1262.9C1493.75 1250.15 1497.9 1238.54 1507.5 1226.82C1526.44 1203.69 1538.05 1189.5 1561.2 1161.27C1580.44 1137.79 1582.39 1104.55 1565.98 1079C1557.29 1065.46 1548.74 1052.13 1540.97 1040.03C1524.6 1014.52 1526.53 981.391 1545.74 957.943C1557.31 943.826 1570.44 927.799 1583.37 912.023C1602.61 888.547 1604.53 855.358 1588.14 829.817C1579.99 817.123 1571.28 803.556 1563.16 790.903C1546.77 765.353 1548.7 732.144 1567.93 708.652C1579.52 694.502 1592.73 678.359 1605.5 662.763C1624.73 639.277 1626.65 606.079 1610.22 580.557C1601.44 566.926 1592.58 553.169 1584.68 540.881C1568.5 515.748 1570.42 483.302 1589.37 460.188C1601.18 445.781 1614.78 429.196 1627.56 413.602C1646.8 390.13 1648.73 356.94 1632.33 331.399C1631.93 330.785 1631.54 330.167 1631.14 329.548C1605.66 289.868 1610.11 212.636 1640 176.162C1643.33 172.096 1646.61 168.096 1649.77 164.233C1668.95 140.83 1670.85 107.822 1654.51 82.361C1634.97 51.9258 1611.41 15.2224 1604.95 5.16433C1603.99 3.66897 1604.37 1.68962 1605.81 0.643387C1607.24 -0.404333 1609.25 -0.147288 1610.38 1.22924L1706.67 118.766C1709.72 122.493 1710.05 127.725 1707.45 131.777C1698.51 145.688 1677.58 178.28 1659.32 206.731C1642.92 232.274 1644.84 265.461 1664.04 288.973C1675.83 303.421 1688.53 318.986 1699.83 332.817C1719.85 357.315 1722 392.717 1704.9 419.334C1697.48 430.899 1689.32 443.595 1681.32 456.057C1664.95 481.564 1666.88 514.703 1686.09 538.153C1698.74 553.6 1712 569.79 1723.6 583.959C1742.89 607.496 1744.84 640.806 1728.41 666.414C1720.67 678.47 1712.08 691.857 1703.5 705.233C1687.11 730.761 1689.02 763.938 1708.25 787.404C1721.11 803.109 1734.3 819.203 1745.87 833.322C1765.1 856.779 1767.03 889.921 1750.65 915.441C1742.87 927.557 1734.27 940.942 1725.58 954.484C1709.21 979.986 1711.12 1013.13 1730.33 1036.57C1743.31 1052.42 1756.41 1068.39 1767.96 1082.49C1787.21 1105.96 1789.12 1139.15 1772.73 1164.7C1762.22 1181.1 1750.35 1199.62 1738.54 1218.03C1727.64 1235.02 1728.93 1257.09 1741.73 1272.69C1746.76 1278.83 1751.84 1285.03 1756.89 1291.2C1775.46 1313.85 1813.25 1299.3 1819.51 1270.69C1822.75 1255.89 1833.89 1250.63 1848.96 1249.13C1873.62 1246.68 1905.22 1243.53 1933.33 1240.74C1963.54 1237.74 1988.38 1215.6 1994.84 1185.93C1998.27 1170.18 2001.65 1154.69 2004.71 1140.63C2011.17 1111.05 2035.92 1089.04 2066.04 1086.05C2084.24 1084.24 2104.91 1082.19 2125.26 1080.17C2155.44 1077.17 2180.26 1055.08 2186.72 1025.44C2189.93 1010.73 2193.36 994.997 2196.56 980.322C2203.05 950.594 2227.97 928.415 2258.24 925.404C2276.4 923.599 2297.1 921.537 2317.09 919.544C2347.29 916.535 2372.11 894.409 2378.55 864.749C2381.97 848.993 2385.42 833.093 2388.51 818.876C2394.88 789.555 2419.32 767.844 2449.18 764.888C2467.67 763.057 2488.94 760.952 2508.93 758.967C2539.09 755.973 2563.86 733.882 2570.31 704.27L2587.5 625.4C2589.25 617.449 2599.29 608.459 2607.39 607.654C2629.16 605.491 2668.64 601.568 2700.77 598.375C2730.92 595.378 2755.65 573.32 2762.1 543.712C2770.01 507.416 2779.1 465.675 2781.61 454.175C2781.99 452.431 2783.65 451.329 2785.42 451.614C2787.17 451.897 2788.4 453.494 2788.22 455.261L2773.24 606.434C2772.75 611.224 2769.23 615.156 2764.53 616.18L2763.12 616.486C2763.12 616.486 2718.46 626.222 2677.65 635.109C2647.96 641.574 2625.8 666.428 2622.74 696.659C2620.88 715.114 2618.86 734.979 2617.08 752.667C2613.89 784.23 2590.29 810.923 2559.29 817.673C2545.92 820.585 2531.26 823.777 2516.87 826.912C2487.24 833.367 2465.16 858.172 2462.16 888.343C2460.17 908.227 2458.1 929.072 2456.28 947.313C2453.27 977.565 2431.13 1002.48 2401.43 1008.95C2387.43 1012.01 2371.87 1015.4 2356.33 1018.79C2326.69 1025.25 2304.58 1050.06 2301.58 1080.25C2299.57 1100.43 2297.52 1121.11 2295.71 1139.26C2292.71 1169.45 2270.63 1194.26 2240.99 1200.72C2226.93 1203.78 2211.4 1207.17 2195.68 1210.59C2166.05 1217.05 2143.94 1241.86 2140.95 1272.05C2138.93 1292.44 2136.9 1312.99 2135.1 1331.13C2132.1 1361.29 2110.01 1386.03 2080.4 1392.5C2061.34 1396.66 2039.83 1401.37 2018.43 1406.05C1998.7 1410.37 1983.99 1426.9 1981.99 1447C1981.21 1454.9 1980.42 1462.88 1979.64 1470.82C1976.75 1500 2013.75 1516.42 2038.44 1500.61C2051.19 1492.44 2062.8 1496.59 2074.51 1506.19C2093.68 1521.89 2118.24 1542 2140.08 1559.9C2163.58 1579.15 2196.8 1581.07 2222.36 1564.66C2235.9 1555.97 2249.22 1547.42 2261.31 1539.66C2286.83 1523.29 2319.95 1525.22 2343.4 1544.43C2357.52 1556 2373.54 1569.13 2389.32 1582.06C2412.79 1601.3 2445.98 1603.22 2471.53 1586.83C2484.22 1578.68 2497.79 1569.97 2510.44 1561.85C2535.99 1545.46 2569.2 1547.39 2592.69 1566.62C2606.84 1578.21 2622.98 1591.42 2638.58 1604.19C2662.06 1623.42 2695.26 1625.34 2720.78 1608.91C2734.42 1600.13 2748.17 1591.27 2760.46 1583.37C2785.59 1567.19 2818.04 1569.11 2841.15 1588.06C2855.56 1599.87 2872.15 1613.47 2887.74 1626.25C2911.21 1645.49 2944.4 1647.42 2969.94 1631.02C2994.7 1615.12 3023.95 1596.34 3039.9 1586.09C3046.93 1581.57 3056.13 1582.1 3062.59 1587.4C3062.59 1587.4 3102.99 1620.49 3136.88 1648.26C3160.36 1667.49 3193.55 1669.4 3219.09 1652.99L3295.86 1603.65C3297.35 1602.69 3299.34 1603.06 3300.38 1604.5C3301.43 1605.93 3301.17 1607.94 3299.8 1609.07L3182.26 1705.36C3178.53 1708.42 3173.25 1708.72 3169.2 1706.11L3168.04 1705.36L3094.37 1658.04C3068.83 1641.63 3035.62 1643.54 3012.1 1662.74C2997.66 1674.53 2982.1 1687.23 2968.27 1698.52C2943.77 1718.54 2908.37 1720.69 2881.76 1703.59C2870.19 1696.17 2857.49 1688.01 2845.03 1680.01C2819.53 1663.64 2786.39 1665.57 2762.94 1684.78C2747.49 1697.43 2731.3 1710.69 2717.13 1722.3C2693.59 1741.58 2660.28 1743.53 2634.67 1727.1C2622.62 1719.36 2609.23 1710.77 2595.86 1702.19C2570.33 1685.8 2537.15 1687.71 2513.69 1706.94C2497.98 1719.8 2481.89 1732.99 2467.77 1744.56C2444.31 1763.79 2411.17 1765.72 2385.65 1749.34C2373.53 1741.56 2360.15 1732.96 2346.61 1724.27C2321.1 1707.9 2287.96 1709.81 2264.52 1729.02C2248.67 1742 2232.7 1755.1 2218.6 1766.65C2195.13 1785.9 2161.94 1787.81 2136.38 1771.43C2119.98 1760.91 2101.46 1749.03 2083.05 1737.22C2066.07 1726.33 2044 1727.62 2028.4 1740.41C2022.26 1745.44 2016.06 1750.53 2009.9 1755.58C1987.24 1774.14 2001.81 1811.94 2030.42 1818.21C2045.21 1821.44 2050.46 1832.58 2051.95 1847.64C2054.91 1877.39 2056.73 1895.64 2060.34 1931.99C2063.34 1962.2 2085.48 1987.07 2115.14 1993.53C2130.89 1996.96 2146.39 2000.34 2160.46 2003.41C2190.04 2009.86 2212.05 2034.61 2215.04 2064.73C2216.84 2082.93 2218.9 2103.6 2220.92 2123.95C2223.92 2154.13 2246.01 2178.95 2275.65 2185.41C2290.36 2188.62 2306.09 2192.05 2320.77 2195.25C2350.49 2201.74 2372.67 2226.66 2375.68 2256.93C2377.49 2275.09 2379.55 2295.79 2381.54 2315.78C2384.55 2345.99 2406.68 2370.81 2436.34 2377.24C2452.1 2380.66 2468 2384.11 2482.21 2387.2C2511.53 2393.57 2533.24 2418.01 2536.2 2447.87C2538.03 2466.33 2540.13 2487.54 2542.11 2507.5C2545.11 2537.72 2567.26 2562.56 2596.93 2569.03C2611.38 2572.18 2627.13 2575.62 2641.58 2578.77C2671.5 2585.3 2693.94 2610.46 2696.97 2640.94C2698.79 2659.19 2700.85 2679.97 2702.78 2699.34C2705.78 2729.54 2727.89 2754.36 2757.55 2760.82L2846.94 2780.29C2848.68 2780.67 2849.82 2782.35 2849.54 2784.11C2849.26 2785.86 2847.66 2787.09 2845.89 2786.91L2694.72 2771.93C2689.93 2771.44 2686 2767.92 2684.97 2763.22L2684.67 2761.81L2666.05 2676.31C2659.59 2646.63 2634.74 2624.49 2604.52 2621.44C2586.06 2619.57 2566.18 2617.55 2548.49 2615.77C2516.92 2612.58 2490.23 2588.98 2483.48 2557.98C2480.57 2544.61 2477.38 2529.95 2474.24 2515.56C2467.78 2485.93 2442.98 2463.85 2412.81 2460.85C2392.92 2458.87 2372.08 2456.79 2353.84 2454.97C2323.59 2451.96 2298.68 2429.82 2292.2 2400.12C2289.15 2386.12 2285.76 2370.56 2282.37 2355.02C2275.91 2325.38 2251.09 2303.27 2220.91 2300.27C2200.72 2298.27 2180.04 2296.21 2161.89 2294.41C2131.71 2291.41 2106.9 2269.32 2100.43 2239.68C2097.37 2225.62 2093.99 2210.09 2090.56 2194.37C2084.1 2164.74 2059.29 2142.63 2029.11 2139.64C2008.72 2137.62 1988.16 2135.59 1970.03 2133.79C1939.86 2130.79 1915.12 2108.7 1908.65 2079.09C1904.49 2060.03 1899.78 2038.52 1895.1 2017.12C1890.78 1997.39 1874.26 1982.68 1854.16 1980.69C1846.25 1979.9 1838.27 1979.11 1830.34 1978.33C1801.16 1975.44 1784.73 2012.44 1800.55 2037.13C1808.71 2049.88 1804.56 2061.49 1794.96 2073.2C1779.27 2092.37 1759.15 2116.93 1741.25 2138.77C1722 2162.27 1720.08 2195.49 1736.49 2221.05C1745.18 2234.59 1753.73 2247.91 1761.49 2260C1777.86 2285.52 1775.93 2318.64 1756.72 2342.09C1745.15 2356.21 1732.02 2372.23 1719.09 2388.01C1699.86 2411.48 1697.93 2444.67 1714.32 2470.22C1722.47 2482.91 1731.18 2496.48 1739.3 2509.13C1755.69 2534.68 1753.76 2567.89 1734.53 2591.38C1722.94 2605.53 1709.73 2621.67 1696.96 2637.27C1677.73 2660.76 1675.81 2693.95 1692.24 2719.48C1700.98 2733.07 1709.81 2746.78 1717.7 2759.04C1733.9 2784.23 1731.99 2816.79 1713 2839.95C1701.21 2854.34 1687.64 2870.89 1674.88 2886.45C1655.65 2909.91 1653.73 2943.09 1670.12 2968.62C1678.67 2981.93 1687.31 2995.38 1695.11 3007.53C1711.53 3033.09 1709.63 3066.31 1690.38 3089.81C1678.45 3104.37 1664.91 3120.9 1652.81 3135.66C1633.58 3159.13 1631.67 3192.3 1648.06 3217.83L1697.5 3294.86C1698.46 3296.36 1698.09 3298.34 1696.66 3299.39C1695.22 3300.44 1693.21 3300.18 1692.08 3298.8L1595.79 3181.27C1592.74 3177.54 1592.41 3172.31 1595.01 3168.25C1603.95 3154.34 1624.88 3121.75 1643.14 3093.3C1659.54 3067.76 1657.62 3034.57 1638.42 3011.06C1626.63 2996.61 1613.93 2981.05 1602.63 2967.21C1582.62 2942.72 1580.46 2907.32 1597.56 2880.7C1604.99 2869.13 1613.14 2856.44 1621.14 2843.98C1637.51 2818.47 1635.58 2785.33 1616.37 2761.88C1603.72 2746.43 1590.46 2730.24 1578.86 2716.07C1559.57 2692.54 1557.62 2659.23 1574.05 2633.62C1581.79 2621.56 1590.38 2608.18 1598.96 2594.8C1615.35 2569.27 1613.44 2536.09 1594.22 2512.63C1581.35 2496.92 1568.16 2480.83 1556.59 2466.71C1537.36 2443.25 1535.43 2410.11 1551.81 2384.59C1559.59 2372.48 1568.19 2359.09 1576.88 2345.55C1593.25 2320.05 1591.34 2286.91 1572.13 2263.46C1559.15 2247.62 1546.06 2231.64 1534.5 2217.55C1515.25 2194.07 1513.34 2160.88 1529.73 2135.33C1540.24 2118.93 1552.12 2100.41 1563.92 2082C1574.82 2065.01 1573.53 2042.94 1560.74 2027.34C1555.7 2021.2 1550.62 2015 1545.57 2008.84C1527 1986.18 1489.21 2000.73 1482.95 2029.35C1479.71 2044.14 1468.57 2049.4 1453.5 2050.9C1428.85 2053.35 1397.25 2056.5 1369.14 2059.29C1338.92 2062.29 1314.08 2084.43 1307.62 2114.1C1304.19 2129.85 1300.81 2145.34 1297.75 2159.4C1291.29 2188.98 1266.54 2210.99 1236.42 2213.98C1218.22 2215.79 1197.55 2217.84 1177.2 2219.86C1147.02 2222.86 1122.2 2244.95 1115.74 2274.59C1112.53 2289.3 1109.1 2305.03 1105.9 2319.71C1099.42 2349.44 1074.5 2371.62 1044.22 2374.63C1026.06 2376.43 1005.37 2378.5 985.368 2380.49C955.167 2383.5 930.347 2405.62 923.911 2435.28C920.492 2451.04 917.041 2466.94 913.951 2481.16C907.579 2510.48 883.145 2532.19 853.286 2535.14C834.792 2536.98 813.531 2539.08 793.543 2541.06C763.377 2544.06 738.605 2566.16 732.146 2595.77C728.761 2611.29 725.338 2626.98 722.25 2641.14C715.787 2670.76 691.019 2692.85 660.844 2695.84C642.122 2697.7 620.848 2699.82 601.834 2701.71C571.617 2704.71 546.8 2726.84 540.338 2756.51C532.656 2791.78 523.408 2834.2 520.863 2845.88C520.483 2847.63 518.807 2848.77 517.045 2848.48C515.293 2848.2 514.064 2846.6 514.239 2844.83L529.226 2693.66C529.716 2688.87 533.23 2684.94 537.934 2683.92L539.341 2683.61L624.844 2664.99C654.519 2658.53 676.658 2633.68 679.716 2603.47C681.584 2585 683.601 2565.13 685.386 2547.43C688.571 2515.87 712.176 2489.17 743.173 2482.42C756.543 2479.51 771.203 2476.32 785.593 2473.18C815.218 2466.73 837.298 2441.92 840.305 2411.75C842.287 2391.87 844.365 2371.02 846.18 2352.78C849.19 2322.53 871.33 2297.62 901.033 2291.14C915.036 2288.09 930.59 2284.7 946.134 2281.31C975.773 2274.85 997.878 2250.04 1000.88 2219.85C1002.89 2199.66 1004.94 2178.98 1006.75 2160.84C1009.75 2130.65 1031.83 2105.84 1061.47 2099.38C1075.53 2096.31 1091.06 2092.93 1106.78 2089.5C1136.41 2083.04 1158.52 2058.23 1161.51 2028.05C1163.53 2007.66 1165.57 1987.1 1167.36 1968.97C1170.36 1938.81 1192.45 1914.06 1222.07 1907.59C1241.12 1903.43 1262.63 1898.73 1284.03 1894.04C1303.77 1889.73 1318.47 1873.2 1320.47 1853.1C1321.25 1845.2 1322.04 1837.21 1322.82 1829.28C1325.71 1800.1 1288.71 1783.67 1264.02 1799.49C1251.27 1807.66 1239.66 1803.5 1227.95 1793.91C1208.78 1778.21 1184.22 1758.09 1162.38 1740.2C1138.88 1720.94 1105.66 1719.02 1080.1 1735.44C1066.56 1744.12 1053.25 1752.67 1041.15 1760.43C1015.64 1776.8 982.511 1774.87 959.063 1755.66C944.945 1744.09 928.919 1730.96 913.143 1718.04C889.667 1698.8 856.478 1696.87 830.936 1713.27C818.243 1721.41 804.675 1730.12 792.023 1738.24C766.472 1754.64 733.264 1752.7 709.771 1733.47C695.622 1721.89 679.479 1708.68 663.883 1695.9C640.397 1676.68 607.198 1674.75 581.673 1691.18C568.086 1699.93 554.372 1708.75 542.114 1716.64C516.92 1732.85 484.366 1730.94 461.197 1711.95C446.816 1700.16 430.276 1686.6 414.722 1673.84C391.25 1654.6 358.06 1652.68 332.519 1669.08C320.16 1677.01 306.683 1685.66 294.3 1693.62C268.412 1710.24 234.512 1708.31 210.713 1688.81C196.312 1677.01 180.046 1663.68 165.487 1651.75C142.021 1632.52 108.854 1630.61 83.3219 1647L5.69821 1696.83C4.5346 1697.57 2.99047 1697.28 2.17642 1696.17L0.0296381 1693.22C-0.0340732 1693.13 0.0109625 1693.01 0.115938 1692.98Z" fill="#005EFF"/>
</svg>
