<svg xmlns="http://www.w3.org/2000/svg" viewBox="-4.00 9.98 450.91 47.73" fill="none" aria-hidden="true">
<g transform="translate(-45.4141, -940)"><rect x="45.4141" y="953.977" width="39.7266" height="39.7266" rx="7.5" stroke="white"/>
<path d="M102.434 968.428V961.448H106.924V962.388H103.554V964.418H106.614V965.358H103.554V968.428H102.434ZM110.89 962.328C110.61 962.328 110.414 962.271 110.3 962.158C110.194 962.044 110.14 961.904 110.14 961.738V961.528C110.14 961.361 110.194 961.221 110.3 961.108C110.414 960.994 110.607 960.938 110.88 960.938C111.16 960.938 111.354 960.994 111.46 961.108C111.574 961.221 111.63 961.361 111.63 961.528V961.738C111.63 961.904 111.574 962.044 111.46 962.158C111.354 962.271 111.164 962.328 110.89 962.328ZM108.58 967.548H110.34V964.148H108.58V963.268H111.43V967.548H113.08V968.428H108.58V967.548ZM114.406 968.428V963.268H115.496V964.148H115.546C115.6 964.014 115.666 963.888 115.746 963.768C115.833 963.641 115.936 963.534 116.056 963.448C116.176 963.354 116.316 963.281 116.476 963.228C116.636 963.174 116.823 963.148 117.036 963.148C117.556 963.148 117.976 963.318 118.296 963.658C118.616 963.998 118.776 964.481 118.776 965.108V968.428H117.686V965.268C117.686 964.448 117.33 964.038 116.616 964.038C116.476 964.038 116.34 964.058 116.206 964.098C116.073 964.131 115.953 964.184 115.846 964.258C115.74 964.331 115.653 964.424 115.586 964.538C115.526 964.651 115.496 964.781 115.496 964.928V968.428H114.406ZM124.483 968.428C124.169 968.428 123.933 968.348 123.773 968.188C123.619 968.028 123.526 967.818 123.493 967.558H123.443C123.343 967.871 123.159 968.114 122.893 968.288C122.633 968.461 122.299 968.548 121.893 968.548C121.366 968.548 120.946 968.411 120.633 968.138C120.319 967.858 120.163 967.474 120.163 966.988C120.163 966.488 120.346 966.108 120.713 965.848C121.086 965.581 121.656 965.448 122.423 965.448H123.413V965.048C123.413 964.348 123.043 963.998 122.303 963.998C121.969 963.998 121.699 964.064 121.493 964.198C121.286 964.324 121.113 964.494 120.973 964.708L120.323 964.178C120.469 963.898 120.716 963.658 121.063 963.458C121.409 963.251 121.856 963.148 122.403 963.148C123.056 963.148 123.569 963.304 123.943 963.618C124.316 963.931 124.503 964.384 124.503 964.978V967.568H125.153V968.428H124.483ZM122.202 967.748C122.556 967.748 122.846 967.668 123.073 967.508C123.299 967.348 123.413 967.141 123.413 966.888V966.138H122.443C121.656 966.138 121.263 966.374 121.263 966.848V967.048C121.263 967.281 121.346 967.458 121.513 967.578C121.679 967.691 121.909 967.748 122.202 967.748ZM126.309 967.548H128.019V961.908H126.309V961.028H129.109V967.548H130.819V968.428H126.309V967.548ZM137.991 968.428V963.268H138.921V963.938H138.971C139.051 963.718 139.164 963.531 139.311 963.378C139.464 963.224 139.681 963.148 139.961 963.148C140.234 963.148 140.444 963.224 140.591 963.378C140.744 963.524 140.841 963.728 140.881 963.988H140.921C141.014 963.754 141.144 963.558 141.311 963.398C141.477 963.231 141.717 963.148 142.031 963.148C142.431 963.148 142.707 963.288 142.861 963.568C143.021 963.848 143.101 964.258 143.101 964.798V968.428H142.171V964.938C142.171 964.578 142.127 964.331 142.041 964.198C141.954 964.058 141.814 963.988 141.621 963.988C141.447 963.988 141.301 964.048 141.181 964.168C141.067 964.281 141.011 964.454 141.011 964.688V968.428H140.081V964.938C140.081 964.578 140.037 964.331 139.951 964.198C139.871 964.058 139.734 963.988 139.541 963.988C139.361 963.988 139.211 964.048 139.091 964.168C138.977 964.281 138.921 964.454 138.921 964.688V968.428H137.991ZM148.467 968.428C148.154 968.428 147.917 968.348 147.757 968.188C147.604 968.028 147.51 967.818 147.477 967.558H147.427C147.327 967.871 147.144 968.114 146.877 968.288C146.617 968.461 146.284 968.548 145.877 968.548C145.35 968.548 144.93 968.411 144.617 968.138C144.304 967.858 144.147 967.474 144.147 966.988C144.147 966.488 144.33 966.108 144.697 965.848C145.07 965.581 145.64 965.448 146.407 965.448H147.397V965.048C147.397 964.348 147.027 963.998 146.287 963.998C145.954 963.998 145.684 964.064 145.477 964.198C145.27 964.324 145.097 964.494 144.957 964.708L144.307 964.178C144.454 963.898 144.7 963.658 145.047 963.458C145.394 963.251 145.84 963.148 146.387 963.148C147.04 963.148 147.554 963.304 147.927 963.618C148.3 963.931 148.487 964.384 148.487 964.978V967.568H149.137V968.428H148.467ZM146.187 967.748C146.54 967.748 146.83 967.668 147.057 967.508C147.284 967.348 147.397 967.141 147.397 966.888V966.138H146.427C145.64 966.138 145.247 966.374 145.247 966.848V967.048C145.247 967.281 145.33 967.458 145.497 967.578C145.664 967.691 145.894 967.748 146.187 967.748ZM150.303 967.548H151.673V964.148H150.303V963.268H152.763V964.638H152.823C152.87 964.458 152.936 964.284 153.023 964.118C153.11 963.951 153.22 963.808 153.353 963.688C153.486 963.561 153.65 963.461 153.843 963.388C154.036 963.308 154.263 963.268 154.523 963.268H155.143V964.308H154.123C153.723 964.308 153.396 964.428 153.143 964.668C152.89 964.901 152.763 965.218 152.763 965.618V967.548H154.633V968.428H150.303V967.548ZM156.419 961.028H157.509V965.498H157.559L158.369 964.668L159.819 963.268H161.109L159.019 965.298L161.339 968.428H160.029L158.229 965.918L157.509 966.588V968.428H156.419V961.028ZM167.731 963.268H168.661L169.161 967.608H169.251L170.021 963.268H171.081L171.841 967.608H171.931L172.441 963.268H173.331L172.611 968.428H171.271L170.581 964.428H170.491L169.791 968.428H168.451L167.731 963.268ZM178.447 968.428C178.134 968.428 177.897 968.348 177.737 968.188C177.584 968.028 177.491 967.818 177.457 967.558H177.407C177.307 967.871 177.124 968.114 176.857 968.288C176.597 968.461 176.264 968.548 175.857 968.548C175.331 968.548 174.911 968.411 174.597 968.138C174.284 967.858 174.127 967.474 174.127 966.988C174.127 966.488 174.311 966.108 174.677 965.848C175.051 965.581 175.621 965.448 176.387 965.448H177.377V965.048C177.377 964.348 177.007 963.998 176.267 963.998C175.934 963.998 175.664 964.064 175.457 964.198C175.251 964.324 175.077 964.494 174.937 964.708L174.287 964.178C174.434 963.898 174.681 963.658 175.027 963.458C175.374 963.251 175.821 963.148 176.367 963.148C177.021 963.148 177.534 963.304 177.907 963.618C178.281 963.931 178.467 964.384 178.467 964.978V967.568H179.117V968.428H178.447ZM176.167 967.748C176.521 967.748 176.811 967.668 177.037 967.508C177.264 967.348 177.377 967.141 177.377 966.888V966.138H176.407C175.621 966.138 175.227 966.374 175.227 966.848V967.048C175.227 967.281 175.311 967.458 175.477 967.578C175.644 967.691 175.874 967.748 176.167 967.748ZM182.533 968.548C181.973 968.548 181.49 968.458 181.083 968.278C180.683 968.098 180.36 967.858 180.113 967.558L180.783 966.958C181.01 967.204 181.263 967.394 181.543 967.528C181.83 967.654 182.167 967.718 182.553 967.718C182.907 967.718 183.19 967.658 183.403 967.538C183.623 967.418 183.733 967.231 183.733 966.978C183.733 966.871 183.713 966.781 183.673 966.708C183.633 966.634 183.577 966.574 183.503 966.528C183.43 966.481 183.343 966.444 183.243 966.418C183.15 966.391 183.05 966.371 182.943 966.358L182.123 966.228C181.923 966.201 181.72 966.158 181.513 966.098C181.307 966.038 181.12 965.954 180.953 965.848C180.793 965.734 180.66 965.591 180.553 965.418C180.453 965.244 180.403 965.024 180.403 964.758C180.403 964.231 180.603 963.831 181.003 963.558C181.41 963.284 181.943 963.148 182.603 963.148C183.083 963.148 183.497 963.221 183.843 963.368C184.197 963.508 184.49 963.704 184.723 963.958L184.113 964.598C183.98 964.444 183.79 964.304 183.543 964.178C183.297 964.044 182.97 963.978 182.563 963.978C181.837 963.978 181.473 964.208 181.473 964.668C181.473 964.888 181.55 965.041 181.703 965.128C181.863 965.208 182.05 965.261 182.263 965.288L183.083 965.418C183.29 965.451 183.493 965.494 183.693 965.548C183.9 965.601 184.083 965.684 184.243 965.798C184.41 965.904 184.543 966.044 184.643 966.218C184.75 966.391 184.803 966.611 184.803 966.878C184.803 967.398 184.6 967.808 184.193 968.108C183.793 968.401 183.24 968.548 182.533 968.548ZM196.436 968.428C196.122 968.428 195.886 968.348 195.726 968.188C195.572 968.028 195.479 967.818 195.446 967.558H195.396C195.296 967.871 195.112 968.114 194.846 968.288C194.586 968.461 194.252 968.548 193.846 968.548C193.319 968.548 192.899 968.411 192.586 968.138C192.272 967.858 192.116 967.474 192.116 966.988C192.116 966.488 192.299 966.108 192.666 965.848C193.039 965.581 193.609 965.448 194.376 965.448H195.366V965.048C195.366 964.348 194.996 963.998 194.256 963.998C193.922 963.998 193.652 964.064 193.446 964.198C193.239 964.324 193.066 964.494 192.926 964.708L192.276 964.178C192.422 963.898 192.669 963.658 193.016 963.458C193.362 963.251 193.809 963.148 194.356 963.148C195.009 963.148 195.522 963.304 195.896 963.618C196.269 963.931 196.456 964.384 196.456 964.978V967.568H197.106V968.428H196.436ZM194.156 967.748C194.509 967.748 194.799 967.668 195.026 967.508C195.252 967.348 195.366 967.141 195.366 966.888V966.138H194.396C193.609 966.138 193.216 966.374 193.216 966.848V967.048C193.216 967.281 193.299 967.458 193.466 967.578C193.632 967.691 193.862 967.748 194.156 967.748ZM206.698 968.548C206.311 968.548 205.964 968.484 205.658 968.358C205.358 968.231 205.101 968.051 204.888 967.818C204.681 967.584 204.521 967.301 204.408 966.968C204.301 966.634 204.248 966.261 204.248 965.848C204.248 965.434 204.301 965.061 204.408 964.728C204.521 964.394 204.681 964.111 204.888 963.878C205.101 963.644 205.358 963.464 205.658 963.338C205.964 963.211 206.308 963.148 206.688 963.148C207.221 963.148 207.648 963.261 207.968 963.488C208.294 963.714 208.538 964.008 208.698 964.368L207.848 964.828C207.754 964.588 207.611 964.398 207.418 964.258C207.231 964.118 206.988 964.048 206.688 964.048C206.274 964.048 205.954 964.174 205.728 964.428C205.501 964.674 205.388 965.004 205.388 965.418V966.278C205.388 966.684 205.501 967.014 205.728 967.268C205.954 967.521 206.281 967.648 206.708 967.648C207.028 967.648 207.288 967.574 207.488 967.428C207.694 967.281 207.858 967.081 207.978 966.828L208.778 967.318C208.611 967.678 208.358 967.974 208.018 968.208C207.678 968.434 207.238 968.548 206.698 968.548ZM212.504 968.548C212.124 968.548 211.781 968.484 211.474 968.358C211.174 968.231 210.917 968.051 210.704 967.818C210.497 967.584 210.337 967.301 210.224 966.968C210.111 966.634 210.054 966.261 210.054 965.848C210.054 965.434 210.111 965.061 210.224 964.728C210.337 964.394 210.497 964.111 210.704 963.878C210.917 963.644 211.174 963.464 211.474 963.338C211.781 963.211 212.124 963.148 212.504 963.148C212.884 963.148 213.224 963.211 213.524 963.338C213.831 963.464 214.087 963.644 214.294 963.878C214.507 964.111 214.671 964.394 214.784 964.728C214.897 965.061 214.954 965.434 214.954 965.848C214.954 966.261 214.897 966.634 214.784 966.968C214.671 967.301 214.507 967.584 214.294 967.818C214.087 968.051 213.831 968.231 213.524 968.358C213.224 968.484 212.884 968.548 212.504 968.548ZM212.504 967.688C212.904 967.688 213.221 967.568 213.454 967.328C213.694 967.081 213.814 966.718 213.814 966.238V965.458C213.814 964.978 213.694 964.618 213.454 964.378C213.221 964.131 212.904 964.008 212.504 964.008C212.104 964.008 211.784 964.131 211.544 964.378C211.311 964.618 211.194 964.978 211.194 965.458V966.238C211.194 966.718 211.311 967.081 211.544 967.328C211.784 967.568 212.104 967.688 212.504 967.688ZM216.25 967.548H217.96V961.908H216.25V961.028H219.05V967.548H220.76V968.428H216.25V967.548ZM222.246 967.548H223.956V961.908H222.246V961.028H225.046V967.548H226.756V968.428H222.246V967.548ZM232.412 968.428C232.099 968.428 231.862 968.348 231.702 968.188C231.549 968.028 231.456 967.818 231.422 967.558H231.372C231.272 967.871 231.089 968.114 230.822 968.288C230.562 968.461 230.229 968.548 229.822 968.548C229.296 968.548 228.876 968.411 228.562 968.138C228.249 967.858 228.092 967.474 228.092 966.988C228.092 966.488 228.276 966.108 228.642 965.848C229.016 965.581 229.586 965.448 230.352 965.448H231.342V965.048C231.342 964.348 230.972 963.998 230.232 963.998C229.899 963.998 229.629 964.064 229.422 964.198C229.216 964.324 229.042 964.494 228.902 964.708L228.252 964.178C228.399 963.898 228.646 963.658 228.992 963.458C229.339 963.251 229.786 963.148 230.332 963.148C230.986 963.148 231.499 963.304 231.872 963.618C232.246 963.931 232.432 964.384 232.432 964.978V967.568H233.082V968.428H232.412ZM230.132 967.748C230.486 967.748 230.776 967.668 231.002 967.508C231.229 967.348 231.342 967.141 231.342 966.888V966.138H230.372C229.586 966.138 229.192 966.374 229.192 966.848V967.048C229.192 967.281 229.276 967.458 229.442 967.578C229.609 967.691 229.839 967.748 230.132 967.748ZM234.278 961.028H235.368V964.148H235.428C235.582 963.834 235.785 963.591 236.038 963.418C236.292 963.238 236.608 963.148 236.988 963.148C237.595 963.148 238.078 963.374 238.438 963.828C238.798 964.281 238.978 964.954 238.978 965.848C238.978 966.741 238.798 967.414 238.438 967.868C238.078 968.321 237.595 968.548 236.988 968.548C236.608 968.548 236.292 968.461 236.038 968.288C235.785 968.108 235.582 967.861 235.428 967.548H235.368V968.428H234.278V961.028ZM236.538 967.658C236.952 967.658 237.268 967.531 237.488 967.278C237.715 967.024 237.828 966.688 237.828 966.268V965.428C237.828 965.008 237.715 964.671 237.488 964.418C237.268 964.164 236.952 964.038 236.538 964.038C236.378 964.038 236.228 964.058 236.088 964.098C235.948 964.138 235.825 964.198 235.718 964.278C235.612 964.358 235.525 964.458 235.458 964.578C235.398 964.691 235.368 964.828 235.368 964.988V966.708C235.368 966.868 235.398 967.008 235.458 967.128C235.525 967.241 235.612 967.338 235.718 967.418C235.825 967.498 235.948 967.558 236.088 967.598C236.228 967.638 236.378 967.658 236.538 967.658ZM242.484 968.548C242.104 968.548 241.761 968.484 241.454 968.358C241.154 968.231 240.898 968.051 240.684 967.818C240.478 967.584 240.318 967.301 240.204 966.968C240.091 966.634 240.034 966.261 240.034 965.848C240.034 965.434 240.091 965.061 240.204 964.728C240.318 964.394 240.478 964.111 240.684 963.878C240.898 963.644 241.154 963.464 241.454 963.338C241.761 963.211 242.104 963.148 242.484 963.148C242.864 963.148 243.204 963.211 243.504 963.338C243.811 963.464 244.068 963.644 244.274 963.878C244.488 964.111 244.651 964.394 244.764 964.728C244.878 965.061 244.934 965.434 244.934 965.848C244.934 966.261 244.878 966.634 244.764 966.968C244.651 967.301 244.488 967.584 244.274 967.818C244.068 968.051 243.811 968.231 243.504 968.358C243.204 968.484 242.864 968.548 242.484 968.548ZM242.484 967.688C242.884 967.688 243.201 967.568 243.434 967.328C243.674 967.081 243.794 966.718 243.794 966.238V965.458C243.794 964.978 243.674 964.618 243.434 964.378C243.201 964.131 242.884 964.008 242.484 964.008C242.084 964.008 241.764 964.131 241.524 964.378C241.291 964.618 241.174 964.978 241.174 965.458V966.238C241.174 966.718 241.291 967.081 241.524 967.328C241.764 967.568 242.084 967.688 242.484 967.688ZM246.24 967.548H247.61V964.148H246.24V963.268H248.7V964.638H248.76C248.807 964.458 248.874 964.284 248.96 964.118C249.047 963.951 249.157 963.808 249.29 963.688C249.424 963.561 249.587 963.461 249.78 963.388C249.974 963.308 250.2 963.268 250.46 963.268H251.08V964.308H250.06C249.66 964.308 249.334 964.428 249.08 964.668C248.827 964.901 248.7 965.218 248.7 965.618V967.548H250.57V968.428H246.24V967.548ZM256.397 968.428C256.083 968.428 255.847 968.348 255.687 968.188C255.533 968.028 255.44 967.818 255.407 967.558H255.357C255.257 967.871 255.073 968.114 254.807 968.288C254.547 968.461 254.213 968.548 253.807 968.548C253.28 968.548 252.86 968.411 252.547 968.138C252.233 967.858 252.077 967.474 252.077 966.988C252.077 966.488 252.26 966.108 252.627 965.848C253 965.581 253.57 965.448 254.337 965.448H255.327V965.048C255.327 964.348 254.957 963.998 254.217 963.998C253.883 963.998 253.613 964.064 253.407 964.198C253.2 964.324 253.027 964.494 252.887 964.708L252.237 964.178C252.383 963.898 252.63 963.658 252.977 963.458C253.323 963.251 253.77 963.148 254.317 963.148C254.97 963.148 255.483 963.304 255.857 963.618C256.23 963.931 256.417 964.384 256.417 964.978V967.568H257.067V968.428H256.397ZM254.117 967.748C254.47 967.748 254.76 967.668 254.987 967.508C255.213 967.348 255.327 967.141 255.327 966.888V966.138H254.357C253.57 966.138 253.177 966.374 253.177 966.848V967.048C253.177 967.281 253.26 967.458 253.427 967.578C253.593 967.691 253.823 967.748 254.117 967.748ZM260.783 968.428C260.329 968.428 259.996 968.308 259.783 968.068C259.569 967.821 259.463 967.504 259.463 967.118V964.148H257.873V963.268H259.003C259.196 963.268 259.333 963.231 259.413 963.158C259.493 963.078 259.533 962.938 259.533 962.738V961.448H260.553V963.268H262.753V964.148H260.553V967.548H262.753V968.428H260.783ZM266.789 962.328C266.509 962.328 266.312 962.271 266.199 962.158C266.092 962.044 266.039 961.904 266.039 961.738V961.528C266.039 961.361 266.092 961.221 266.199 961.108C266.312 960.994 266.505 960.938 266.779 960.938C267.059 960.938 267.252 960.994 267.359 961.108C267.472 961.221 267.529 961.361 267.529 961.528V961.738C267.529 961.904 267.472 962.044 267.359 962.158C267.252 962.271 267.062 962.328 266.789 962.328ZM264.479 967.548H266.239V964.148H264.479V963.268H267.329V967.548H268.979V968.428H264.479V967.548ZM272.465 968.548C272.085 968.548 271.742 968.484 271.435 968.358C271.135 968.231 270.878 968.051 270.665 967.818C270.458 967.584 270.298 967.301 270.185 966.968C270.072 966.634 270.015 966.261 270.015 965.848C270.015 965.434 270.072 965.061 270.185 964.728C270.298 964.394 270.458 964.111 270.665 963.878C270.878 963.644 271.135 963.464 271.435 963.338C271.742 963.211 272.085 963.148 272.465 963.148C272.845 963.148 273.185 963.211 273.485 963.338C273.792 963.464 274.048 963.644 274.255 963.878C274.468 964.111 274.632 964.394 274.745 964.728C274.858 965.061 274.915 965.434 274.915 965.848C274.915 966.261 274.858 966.634 274.745 966.968C274.632 967.301 274.468 967.584 274.255 967.818C274.048 968.051 273.792 968.231 273.485 968.358C273.185 968.484 272.845 968.548 272.465 968.548ZM272.465 967.688C272.865 967.688 273.182 967.568 273.415 967.328C273.655 967.081 273.775 966.718 273.775 966.238V965.458C273.775 964.978 273.655 964.618 273.415 964.378C273.182 964.131 272.865 964.008 272.465 964.008C272.065 964.008 271.745 964.131 271.505 964.378C271.272 964.618 271.155 964.978 271.155 965.458V966.238C271.155 966.718 271.272 967.081 271.505 967.328C271.745 967.568 272.065 967.688 272.465 967.688ZM276.301 968.428V963.268H277.391V964.148H277.441C277.494 964.014 277.561 963.888 277.641 963.768C277.728 963.641 277.831 963.534 277.951 963.448C278.071 963.354 278.211 963.281 278.371 963.228C278.531 963.174 278.718 963.148 278.931 963.148C279.451 963.148 279.871 963.318 280.191 963.658C280.511 963.998 280.671 964.481 280.671 965.108V968.428H279.581V965.268C279.581 964.448 279.224 964.038 278.511 964.038C278.371 964.038 278.234 964.058 278.101 964.098C277.968 964.131 277.848 964.184 277.741 964.258C277.634 964.331 277.548 964.424 277.481 964.538C277.421 964.651 277.391 964.781 277.391 964.928V968.428H276.301ZM288.243 961.028H289.333V964.148H289.393C289.546 963.834 289.75 963.591 290.003 963.418C290.256 963.238 290.573 963.148 290.953 963.148C291.56 963.148 292.043 963.374 292.403 963.828C292.763 964.281 292.943 964.954 292.943 965.848C292.943 966.741 292.763 967.414 292.403 967.868C292.043 968.321 291.56 968.548 290.953 968.548C290.573 968.548 290.256 968.461 290.003 968.288C289.75 968.108 289.546 967.861 289.393 967.548H289.333V968.428H288.243V961.028ZM290.503 967.658C290.916 967.658 291.233 967.531 291.453 967.278C291.68 967.024 291.793 966.688 291.793 966.268V965.428C291.793 965.008 291.68 964.671 291.453 964.418C291.233 964.164 290.916 964.038 290.503 964.038C290.343 964.038 290.193 964.058 290.053 964.098C289.913 964.138 289.79 964.198 289.683 964.278C289.576 964.358 289.49 964.458 289.423 964.578C289.363 964.691 289.333 964.828 289.333 964.988V966.708C289.333 966.868 289.363 967.008 289.423 967.128C289.49 967.241 289.576 967.338 289.683 967.418C289.79 967.498 289.913 967.558 290.053 967.598C290.193 967.638 290.343 967.658 290.503 967.658ZM296.559 968.548C296.166 968.548 295.813 968.484 295.499 968.358C295.186 968.231 294.923 968.051 294.709 967.818C294.496 967.584 294.333 967.304 294.219 966.978C294.106 966.644 294.049 966.271 294.049 965.858C294.049 965.444 294.106 965.071 294.219 964.738C294.339 964.404 294.503 964.121 294.709 963.888C294.923 963.648 295.179 963.464 295.479 963.338C295.779 963.211 296.113 963.148 296.479 963.148C296.839 963.148 297.166 963.211 297.459 963.338C297.753 963.458 298.003 963.631 298.209 963.858C298.416 964.084 298.573 964.354 298.679 964.668C298.793 964.981 298.849 965.328 298.849 965.708V966.118H295.149V966.288C295.149 966.694 295.276 967.028 295.529 967.288C295.783 967.541 296.133 967.668 296.579 967.668C296.913 967.668 297.196 967.598 297.429 967.458C297.669 967.311 297.863 967.118 298.009 966.878L298.689 967.478C298.516 967.778 298.249 968.031 297.889 968.238C297.536 968.444 297.093 968.548 296.559 968.548ZM296.479 963.978C296.286 963.978 296.106 964.011 295.939 964.078C295.779 964.144 295.639 964.241 295.519 964.368C295.406 964.488 295.316 964.631 295.249 964.798C295.183 964.964 295.149 965.148 295.149 965.348V965.418H297.739V965.318C297.739 964.911 297.623 964.588 297.389 964.348C297.163 964.101 296.859 963.978 296.479 963.978ZM302.755 968.428C302.302 968.428 301.969 968.308 301.755 968.068C301.542 967.821 301.435 967.504 301.435 967.118V964.148H299.845V963.268H300.975C301.169 963.268 301.305 963.231 301.385 963.158C301.465 963.078 301.505 962.938 301.505 962.738V961.448H302.525V963.268H304.725V964.148H302.525V967.548H304.725V968.428H302.755ZM305.641 963.268H306.571L307.071 967.608H307.161L307.931 963.268H308.991L309.751 967.608H309.841L310.351 963.268H311.241L310.521 968.428H309.181L308.491 964.428H308.401L307.701 968.428H306.361L305.641 963.268ZM314.548 968.548C314.154 968.548 313.801 968.484 313.488 968.358C313.174 968.231 312.911 968.051 312.698 967.818C312.484 967.584 312.321 967.304 312.208 966.978C312.094 966.644 312.038 966.271 312.038 965.858C312.038 965.444 312.094 965.071 312.208 964.738C312.328 964.404 312.491 964.121 312.698 963.888C312.911 963.648 313.168 963.464 313.468 963.338C313.768 963.211 314.101 963.148 314.468 963.148C314.828 963.148 315.154 963.211 315.448 963.338C315.741 963.458 315.991 963.631 316.198 963.858C316.404 964.084 316.561 964.354 316.668 964.668C316.781 964.981 316.838 965.328 316.838 965.708V966.118H313.138V966.288C313.138 966.694 313.264 967.028 313.518 967.288C313.771 967.541 314.121 967.668 314.568 967.668C314.901 967.668 315.184 967.598 315.418 967.458C315.658 967.311 315.851 967.118 315.998 966.878L316.678 967.478C316.504 967.778 316.238 968.031 315.878 968.238C315.524 968.444 315.081 968.548 314.548 968.548ZM314.468 963.978C314.274 963.978 314.094 964.011 313.928 964.078C313.768 964.144 313.628 964.241 313.508 964.368C313.394 964.488 313.304 964.631 313.238 964.798C313.171 964.964 313.138 965.148 313.138 965.348V965.418H315.728V965.318C315.728 964.911 315.611 964.588 315.378 964.348C315.151 964.101 314.848 963.978 314.468 963.978ZM320.544 968.548C320.15 968.548 319.797 968.484 319.484 968.358C319.17 968.231 318.907 968.051 318.694 967.818C318.48 967.584 318.317 967.304 318.204 966.978C318.09 966.644 318.034 966.271 318.034 965.858C318.034 965.444 318.09 965.071 318.204 964.738C318.324 964.404 318.487 964.121 318.694 963.888C318.907 963.648 319.164 963.464 319.464 963.338C319.764 963.211 320.097 963.148 320.464 963.148C320.824 963.148 321.15 963.211 321.444 963.338C321.737 963.458 321.987 963.631 322.194 963.858C322.4 964.084 322.557 964.354 322.664 964.668C322.777 964.981 322.834 965.328 322.834 965.708V966.118H319.134V966.288C319.134 966.694 319.26 967.028 319.514 967.288C319.767 967.541 320.117 967.668 320.564 967.668C320.897 967.668 321.18 967.598 321.414 967.458C321.654 967.311 321.847 967.118 321.994 966.878L322.674 967.478C322.5 967.778 322.234 968.031 321.874 968.238C321.52 968.444 321.077 968.548 320.544 968.548ZM320.464 963.978C320.27 963.978 320.09 964.011 319.924 964.078C319.764 964.144 319.624 964.241 319.504 964.368C319.39 964.488 319.3 964.631 319.234 964.798C319.167 964.964 319.134 965.148 319.134 965.348V965.418H321.724V965.318C321.724 964.911 321.607 964.588 321.374 964.348C321.147 964.101 320.844 963.978 320.464 963.978ZM324.27 968.428V963.268H325.36V964.148H325.41C325.463 964.014 325.53 963.888 325.61 963.768C325.696 963.641 325.8 963.534 325.92 963.448C326.04 963.354 326.18 963.281 326.34 963.228C326.5 963.174 326.686 963.148 326.9 963.148C327.42 963.148 327.84 963.318 328.16 963.658C328.48 963.998 328.64 964.481 328.64 965.108V968.428H327.55V965.268C327.55 964.448 327.193 964.038 326.48 964.038C326.34 964.038 326.203 964.058 326.07 964.098C325.936 964.131 325.816 964.184 325.71 964.258C325.603 964.331 325.516 964.424 325.45 964.538C325.39 964.651 325.36 964.781 325.36 964.928V968.428H324.27ZM338.622 968.548C337.735 968.548 337.075 968.234 336.642 967.608C336.215 966.981 336.002 966.091 336.002 964.938C336.002 963.784 336.215 962.894 336.642 962.268C337.075 961.641 337.735 961.328 338.622 961.328C338.962 961.328 339.255 961.374 339.502 961.468C339.755 961.554 339.972 961.678 340.152 961.838C340.332 961.991 340.482 962.174 340.602 962.388C340.729 962.594 340.832 962.818 340.912 963.058L339.902 963.398C339.849 963.238 339.789 963.088 339.722 962.948C339.655 962.808 339.572 962.688 339.472 962.588C339.372 962.488 339.252 962.408 339.112 962.348C338.979 962.288 338.812 962.258 338.612 962.258C338.119 962.258 337.759 962.448 337.532 962.828C337.305 963.201 337.192 963.708 337.192 964.348V965.528C337.192 966.168 337.305 966.678 337.532 967.058C337.759 967.431 338.119 967.618 338.612 967.618C338.812 967.618 338.979 967.588 339.112 967.528C339.252 967.468 339.372 967.388 339.472 967.288C339.572 967.188 339.655 967.068 339.722 966.928C339.789 966.788 339.849 966.638 339.902 966.478L340.912 966.818C340.832 967.058 340.729 967.284 340.602 967.498C340.482 967.704 340.332 967.888 340.152 968.048C339.972 968.201 339.755 968.324 339.502 968.418C339.255 968.504 338.962 968.548 338.622 968.548ZM342.258 961.028H343.348V964.148H343.398C343.451 964.014 343.518 963.888 343.598 963.768C343.685 963.641 343.788 963.534 343.908 963.448C344.028 963.354 344.168 963.281 344.328 963.228C344.488 963.174 344.675 963.148 344.888 963.148C345.408 963.148 345.828 963.318 346.148 963.658C346.468 963.998 346.628 964.481 346.628 965.108V968.428H345.538V965.268C345.538 964.448 345.181 964.038 344.468 964.038C344.328 964.038 344.191 964.058 344.058 964.098C343.925 964.131 343.805 964.184 343.698 964.258C343.591 964.331 343.505 964.424 343.438 964.538C343.378 964.651 343.348 964.781 343.348 964.928V968.428H342.258V961.028ZM352.334 968.428C352.021 968.428 351.784 968.348 351.624 968.188C351.471 968.028 351.377 967.818 351.344 967.558H351.294C351.194 967.871 351.011 968.114 350.744 968.288C350.484 968.461 350.151 968.548 349.744 968.548C349.217 968.548 348.797 968.411 348.484 968.138C348.171 967.858 348.014 967.474 348.014 966.988C348.014 966.488 348.197 966.108 348.564 965.848C348.937 965.581 349.507 965.448 350.274 965.448H351.264V965.048C351.264 964.348 350.894 963.998 350.154 963.998C349.821 963.998 349.551 964.064 349.344 964.198C349.137 964.324 348.964 964.494 348.824 964.708L348.174 964.178C348.321 963.898 348.567 963.658 348.914 963.458C349.261 963.251 349.707 963.148 350.254 963.148C350.907 963.148 351.421 963.304 351.794 963.618C352.167 963.931 352.354 964.384 352.354 964.978V967.568H353.004V968.428H352.334ZM350.054 967.748C350.407 967.748 350.697 967.668 350.924 967.508C351.151 967.348 351.264 967.141 351.264 966.888V966.138H350.294C349.507 966.138 349.114 966.374 349.114 966.848V967.048C349.114 967.281 349.197 967.458 349.364 967.578C349.531 967.691 349.761 967.748 350.054 967.748ZM354.17 967.548H355.54V964.148H354.17V963.268H356.63V964.638H356.69C356.737 964.458 356.803 964.284 356.89 964.118C356.977 963.951 357.087 963.808 357.22 963.688C357.353 963.561 357.517 963.461 357.71 963.388C357.903 963.308 358.13 963.268 358.39 963.268H359.01V964.308H357.99C357.59 964.308 357.263 964.428 357.01 964.668C356.757 964.901 356.63 965.218 356.63 965.618V967.548H358.5V968.428H354.17V967.548ZM360.156 967.548H361.866V961.908H360.156V961.028H362.956V967.548H364.666V968.428H360.156V967.548ZM368.722 962.328C368.442 962.328 368.246 962.271 368.132 962.158C368.026 962.044 367.972 961.904 367.972 961.738V961.528C367.972 961.361 368.026 961.221 368.132 961.108C368.246 960.994 368.439 960.938 368.712 960.938C368.992 960.938 369.186 960.994 369.292 961.108C369.406 961.221 369.462 961.361 369.462 961.528V961.738C369.462 961.904 369.406 962.044 369.292 962.158C369.186 962.271 368.996 962.328 368.722 962.328ZM366.412 967.548H368.172V964.148H366.412V963.268H369.262V967.548H370.912V968.428H366.412V967.548ZM374.508 968.548C374.115 968.548 373.762 968.484 373.448 968.358C373.135 968.231 372.872 968.051 372.658 967.818C372.445 967.584 372.282 967.304 372.168 966.978C372.055 966.644 371.998 966.271 371.998 965.858C371.998 965.444 372.055 965.071 372.168 964.738C372.288 964.404 372.452 964.121 372.658 963.888C372.872 963.648 373.128 963.464 373.428 963.338C373.728 963.211 374.062 963.148 374.428 963.148C374.788 963.148 375.115 963.211 375.408 963.338C375.702 963.458 375.952 963.631 376.158 963.858C376.365 964.084 376.522 964.354 376.628 964.668C376.742 964.981 376.798 965.328 376.798 965.708V966.118H373.098V966.288C373.098 966.694 373.225 967.028 373.478 967.288C373.732 967.541 374.082 967.668 374.528 967.668C374.862 967.668 375.145 967.598 375.378 967.458C375.618 967.311 375.812 967.118 375.958 966.878L376.638 967.478C376.465 967.778 376.198 968.031 375.838 968.238C375.485 968.444 375.042 968.548 374.508 968.548ZM374.428 963.978C374.235 963.978 374.055 964.011 373.888 964.078C373.728 964.144 373.588 964.241 373.468 964.368C373.355 964.488 373.265 964.631 373.198 964.798C373.132 964.964 373.098 965.148 373.098 965.348V965.418H375.688V965.318C375.688 964.911 375.572 964.588 375.338 964.348C375.112 964.101 374.808 963.978 374.428 963.978ZM386.591 968.548C385.704 968.548 385.044 968.234 384.611 967.608C384.184 966.981 383.971 966.091 383.971 964.938C383.971 963.784 384.184 962.894 384.611 962.268C385.044 961.641 385.704 961.328 386.591 961.328C386.931 961.328 387.224 961.374 387.471 961.468C387.724 961.554 387.941 961.678 388.121 961.838C388.301 961.991 388.451 962.174 388.571 962.388C388.697 962.594 388.801 962.818 388.881 963.058L387.871 963.398C387.817 963.238 387.757 963.088 387.691 962.948C387.624 962.808 387.541 962.688 387.441 962.588C387.341 962.488 387.221 962.408 387.081 962.348C386.947 962.288 386.781 962.258 386.581 962.258C386.087 962.258 385.727 962.448 385.501 962.828C385.274 963.201 385.161 963.708 385.161 964.348V965.528C385.161 966.168 385.274 966.678 385.501 967.058C385.727 967.431 386.087 967.618 386.581 967.618C386.781 967.618 386.947 967.588 387.081 967.528C387.221 967.468 387.341 967.388 387.441 967.288C387.541 967.188 387.624 967.068 387.691 966.928C387.757 966.788 387.817 966.638 387.871 966.478L388.881 966.818C388.801 967.058 388.697 967.284 388.571 967.498C388.451 967.704 388.301 967.888 388.121 968.048C387.941 968.201 387.724 968.324 387.471 968.418C387.224 968.504 386.931 968.548 386.591 968.548ZM392.387 968.548C392.007 968.548 391.663 968.484 391.357 968.358C391.057 968.231 390.8 968.051 390.587 967.818C390.38 967.584 390.22 967.301 390.107 966.968C389.993 966.634 389.937 966.261 389.937 965.848C389.937 965.434 389.993 965.061 390.107 964.728C390.22 964.394 390.38 964.111 390.587 963.878C390.8 963.644 391.057 963.464 391.357 963.338C391.663 963.211 392.007 963.148 392.387 963.148C392.767 963.148 393.107 963.211 393.407 963.338C393.713 963.464 393.97 963.644 394.177 963.878C394.39 964.111 394.553 964.394 394.667 964.728C394.78 965.061 394.837 965.434 394.837 965.848C394.837 966.261 394.78 966.634 394.667 966.968C394.553 967.301 394.39 967.584 394.177 967.818C393.97 968.051 393.713 968.231 393.407 968.358C393.107 968.484 392.767 968.548 392.387 968.548ZM392.387 967.688C392.787 967.688 393.103 967.568 393.337 967.328C393.577 967.081 393.697 966.718 393.697 966.238V965.458C393.697 964.978 393.577 964.618 393.337 964.378C393.103 964.131 392.787 964.008 392.387 964.008C391.987 964.008 391.667 964.131 391.427 964.378C391.193 964.618 391.077 964.978 391.077 965.458V966.238C391.077 966.718 391.193 967.081 391.427 967.328C391.667 967.568 391.987 967.688 392.387 967.688ZM398.383 968.548C398.003 968.548 397.659 968.484 397.353 968.358C397.053 968.231 396.796 968.051 396.583 967.818C396.376 967.584 396.216 967.301 396.103 966.968C395.989 966.634 395.933 966.261 395.933 965.848C395.933 965.434 395.989 965.061 396.103 964.728C396.216 964.394 396.376 964.111 396.583 963.878C396.796 963.644 397.053 963.464 397.353 963.338C397.659 963.211 398.003 963.148 398.383 963.148C398.763 963.148 399.103 963.211 399.403 963.338C399.709 963.464 399.966 963.644 400.173 963.878C400.386 964.111 400.549 964.394 400.663 964.728C400.776 965.061 400.833 965.434 400.833 965.848C400.833 966.261 400.776 966.634 400.663 966.968C400.549 967.301 400.386 967.584 400.173 967.818C399.966 968.051 399.709 968.231 399.403 968.358C399.103 968.484 398.763 968.548 398.383 968.548ZM398.383 967.688C398.783 967.688 399.099 967.568 399.333 967.328C399.573 967.081 399.693 966.718 399.693 966.238V965.458C399.693 964.978 399.573 964.618 399.333 964.378C399.099 964.131 398.783 964.008 398.383 964.008C397.983 964.008 397.663 964.131 397.423 964.378C397.189 964.618 397.073 964.978 397.073 965.458V966.238C397.073 966.718 397.189 967.081 397.423 967.328C397.663 967.568 397.983 967.688 398.383 967.688ZM401.819 968.428V963.268H402.749V963.938H402.799C402.879 963.718 402.992 963.531 403.139 963.378C403.292 963.224 403.509 963.148 403.789 963.148C404.062 963.148 404.272 963.224 404.419 963.378C404.572 963.524 404.669 963.728 404.709 963.988H404.749C404.842 963.754 404.972 963.558 405.139 963.398C405.306 963.231 405.546 963.148 405.859 963.148C406.259 963.148 406.536 963.288 406.689 963.568C406.849 963.848 406.929 964.258 406.929 964.798V968.428H405.999V964.938C405.999 964.578 405.956 964.331 405.869 964.198C405.782 964.058 405.642 963.988 405.449 963.988C405.276 963.988 405.129 964.048 405.009 964.168C404.896 964.281 404.839 964.454 404.839 964.688V968.428H403.909V964.938C403.909 964.578 403.866 964.331 403.779 964.198C403.699 964.058 403.562 963.988 403.369 963.988C403.189 963.988 403.039 964.048 402.919 964.168C402.806 964.281 402.749 964.454 402.749 964.688V968.428H401.819ZM408.165 961.028H409.255V964.148H409.315C409.468 963.834 409.672 963.591 409.925 963.418C410.178 963.238 410.495 963.148 410.875 963.148C411.482 963.148 411.965 963.374 412.325 963.828C412.685 964.281 412.865 964.954 412.865 965.848C412.865 966.741 412.685 967.414 412.325 967.868C411.965 968.321 411.482 968.548 410.875 968.548C410.495 968.548 410.178 968.461 409.925 968.288C409.672 968.108 409.468 967.861 409.315 967.548H409.255V968.428H408.165V961.028ZM410.425 967.658C410.838 967.658 411.155 967.531 411.375 967.278C411.602 967.024 411.715 966.688 411.715 966.268V965.428C411.715 965.008 411.602 964.671 411.375 964.418C411.155 964.164 410.838 964.038 410.425 964.038C410.265 964.038 410.115 964.058 409.975 964.098C409.835 964.138 409.712 964.198 409.605 964.278C409.498 964.358 409.412 964.458 409.345 964.578C409.285 964.691 409.255 964.828 409.255 964.988V966.708C409.255 966.868 409.285 967.008 409.345 967.128C409.412 967.241 409.498 967.338 409.605 967.418C409.712 967.498 409.835 967.558 409.975 967.598C410.115 967.638 410.265 967.658 410.425 967.658ZM416.381 968.548C415.821 968.548 415.338 968.458 414.931 968.278C414.531 968.098 414.208 967.858 413.961 967.558L414.631 966.958C414.858 967.204 415.111 967.394 415.391 967.528C415.678 967.654 416.014 967.718 416.401 967.718C416.754 967.718 417.038 967.658 417.251 967.538C417.471 967.418 417.581 967.231 417.581 966.978C417.581 966.871 417.561 966.781 417.521 966.708C417.481 966.634 417.424 966.574 417.351 966.528C417.278 966.481 417.191 966.444 417.091 966.418C416.998 966.391 416.898 966.371 416.791 966.358L415.971 966.228C415.771 966.201 415.568 966.158 415.361 966.098C415.154 966.038 414.968 965.954 414.801 965.848C414.641 965.734 414.508 965.591 414.401 965.418C414.301 965.244 414.251 965.024 414.251 964.758C414.251 964.231 414.451 963.831 414.851 963.558C415.258 963.284 415.791 963.148 416.451 963.148C416.931 963.148 417.344 963.221 417.691 963.368C418.044 963.508 418.338 963.704 418.571 963.958L417.961 964.598C417.828 964.444 417.638 964.304 417.391 964.178C417.144 964.044 416.818 963.978 416.411 963.978C415.684 963.978 415.321 964.208 415.321 964.668C415.321 964.888 415.398 965.041 415.551 965.128C415.711 965.208 415.898 965.261 416.111 965.288L416.931 965.418C417.138 965.451 417.341 965.494 417.541 965.548C417.748 965.601 417.931 965.684 418.091 965.798C418.258 965.904 418.391 966.044 418.491 966.218C418.598 966.391 418.651 966.611 418.651 966.878C418.651 967.398 418.448 967.808 418.041 968.108C417.641 968.401 417.088 968.548 416.381 968.548ZM430.283 968.428C429.97 968.428 429.733 968.348 429.573 968.188C429.42 968.028 429.327 967.818 429.293 967.558H429.243C429.143 967.871 428.96 968.114 428.693 968.288C428.433 968.461 428.1 968.548 427.693 968.548C427.167 968.548 426.747 968.411 426.433 968.138C426.12 967.858 425.963 967.474 425.963 966.988C425.963 966.488 426.147 966.108 426.513 965.848C426.887 965.581 427.457 965.448 428.223 965.448H429.213V965.048C429.213 964.348 428.843 963.998 428.103 963.998C427.77 963.998 427.5 964.064 427.293 964.198C427.087 964.324 426.913 964.494 426.773 964.708L426.123 964.178C426.27 963.898 426.517 963.658 426.863 963.458C427.21 963.251 427.657 963.148 428.203 963.148C428.857 963.148 429.37 963.304 429.743 963.618C430.117 963.931 430.303 964.384 430.303 964.978V967.568H430.953V968.428H430.283ZM428.003 967.748C428.357 967.748 428.647 967.668 428.873 967.508C429.1 967.348 429.213 967.141 429.213 966.888V966.138H428.243C427.457 966.138 427.063 966.374 427.063 966.848V967.048C427.063 967.281 427.147 967.458 427.313 967.578C427.48 967.691 427.71 967.748 428.003 967.748ZM432.199 968.428V963.268H433.289V964.148H433.339C433.393 964.014 433.459 963.888 433.539 963.768C433.626 963.641 433.729 963.534 433.849 963.448C433.969 963.354 434.109 963.281 434.269 963.228C434.429 963.174 434.616 963.148 434.829 963.148C435.349 963.148 435.769 963.318 436.089 963.658C436.409 963.998 436.569 964.481 436.569 965.108V968.428H435.479V965.268C435.479 964.448 435.123 964.038 434.409 964.038C434.269 964.038 434.133 964.058 433.999 964.098C433.866 964.131 433.746 964.184 433.639 964.258C433.533 964.331 433.446 964.424 433.379 964.538C433.319 964.651 433.289 964.781 433.289 964.928V968.428H432.199ZM441.475 967.548H441.415C441.262 967.861 441.059 968.108 440.805 968.288C440.552 968.461 440.235 968.548 439.855 968.548C439.249 968.548 438.765 968.321 438.405 967.868C438.045 967.414 437.865 966.741 437.865 965.848C437.865 964.954 438.045 964.281 438.405 963.828C438.765 963.374 439.249 963.148 439.855 963.148C440.235 963.148 440.552 963.238 440.805 963.418C441.059 963.591 441.262 963.834 441.415 964.148H441.475V961.028H442.565V968.428H441.475V967.548ZM440.305 967.658C440.465 967.658 440.615 967.638 440.755 967.598C440.895 967.558 441.019 967.498 441.125 967.418C441.232 967.338 441.315 967.241 441.375 967.128C441.442 967.008 441.475 966.868 441.475 966.708V964.988C441.475 964.828 441.442 964.691 441.375 964.578C441.315 964.458 441.232 964.358 441.125 964.278C441.019 964.198 440.895 964.138 440.755 964.098C440.615 964.058 440.465 964.038 440.305 964.038C439.892 964.038 439.572 964.164 439.345 964.418C439.125 964.671 439.015 965.008 439.015 965.428V966.268C439.015 966.688 439.125 967.024 439.345 967.278C439.572 967.531 439.892 967.658 440.305 967.658ZM449.788 968.428V963.268H450.718V963.938H450.768C450.848 963.718 450.961 963.531 451.108 963.378C451.261 963.224 451.478 963.148 451.758 963.148C452.031 963.148 452.241 963.224 452.388 963.378C452.541 963.524 452.638 963.728 452.678 963.988H452.718C452.811 963.754 452.941 963.558 453.108 963.398C453.274 963.231 453.514 963.148 453.828 963.148C454.228 963.148 454.504 963.288 454.658 963.568C454.818 963.848 454.898 964.258 454.898 964.798V968.428H453.968V964.938C453.968 964.578 453.924 964.331 453.838 964.198C453.751 964.058 453.611 963.988 453.418 963.988C453.244 963.988 453.098 964.048 452.978 964.168C452.864 964.281 452.808 964.454 452.808 964.688V968.428H451.878V964.938C451.878 964.578 451.834 964.331 451.748 964.198C451.668 964.058 451.531 963.988 451.338 963.988C451.158 963.988 451.008 964.048 450.888 964.168C450.774 964.281 450.718 964.454 450.718 964.688V968.428H449.788ZM459.854 963.268H460.954L458.454 969.428C458.32 969.761 458.144 970.011 457.924 970.178C457.71 970.344 457.4 970.428 456.994 970.428H456.124V969.548H457.344L457.814 968.358L455.734 963.268H456.874L457.694 965.428L458.334 967.198H458.394L459.034 965.428L459.854 963.268ZM464.35 968.548C463.79 968.548 463.307 968.458 462.9 968.278C462.5 968.098 462.177 967.858 461.93 967.558L462.6 966.958C462.827 967.204 463.08 967.394 463.36 967.528C463.647 967.654 463.983 967.718 464.37 967.718C464.723 967.718 465.007 967.658 465.22 967.538C465.44 967.418 465.55 967.231 465.55 966.978C465.55 966.871 465.53 966.781 465.49 966.708C465.45 966.634 465.393 966.574 465.32 966.528C465.247 966.481 465.16 966.444 465.06 966.418C464.967 966.391 464.867 966.371 464.76 966.358L463.94 966.228C463.74 966.201 463.537 966.158 463.33 966.098C463.123 966.038 462.937 965.954 462.77 965.848C462.61 965.734 462.477 965.591 462.37 965.418C462.27 965.244 462.22 965.024 462.22 964.758C462.22 964.231 462.42 963.831 462.82 963.558C463.227 963.284 463.76 963.148 464.42 963.148C464.9 963.148 465.313 963.221 465.66 963.368C466.013 963.508 466.307 963.704 466.54 963.958L465.93 964.598C465.797 964.444 465.607 964.304 465.36 964.178C465.113 964.044 464.787 963.978 464.38 963.978C463.653 963.978 463.29 964.208 463.29 964.668C463.29 964.888 463.367 965.041 463.52 965.128C463.68 965.208 463.867 965.261 464.08 965.288L464.9 965.418C465.107 965.451 465.31 965.494 465.51 965.548C465.717 965.601 465.9 965.684 466.06 965.798C466.227 965.904 466.36 966.044 466.46 966.218C466.567 966.391 466.62 966.611 466.62 966.878C466.62 967.398 466.417 967.808 466.01 968.108C465.61 968.401 465.057 968.548 464.35 968.548ZM470.446 968.548C470.053 968.548 469.699 968.484 469.386 968.358C469.073 968.231 468.809 968.051 468.596 967.818C468.383 967.584 468.219 967.304 468.106 966.978C467.993 966.644 467.936 966.271 467.936 965.858C467.936 965.444 467.993 965.071 468.106 964.738C468.226 964.404 468.389 964.121 468.596 963.888C468.809 963.648 469.066 963.464 469.366 963.338C469.666 963.211 469.999 963.148 470.366 963.148C470.726 963.148 471.053 963.211 471.346 963.338C471.639 963.458 471.889 963.631 472.096 963.858C472.303 964.084 472.459 964.354 472.566 964.668C472.679 964.981 472.736 965.328 472.736 965.708V966.118H469.036V966.288C469.036 966.694 469.163 967.028 469.416 967.288C469.669 967.541 470.019 967.668 470.466 967.668C470.799 967.668 471.083 967.598 471.316 967.458C471.556 967.311 471.749 967.118 471.896 966.878L472.576 967.478C472.403 967.778 472.136 968.031 471.776 968.238C471.423 968.444 470.979 968.548 470.446 968.548ZM470.366 963.978C470.173 963.978 469.993 964.011 469.826 964.078C469.666 964.144 469.526 964.241 469.406 964.368C469.293 964.488 469.203 964.631 469.136 964.798C469.069 964.964 469.036 965.148 469.036 965.348V965.418H471.626V965.318C471.626 964.911 471.509 964.588 471.276 964.348C471.049 964.101 470.746 963.978 470.366 963.978ZM474.082 967.548H475.792V961.908H474.082V961.028H476.882V967.548H478.592V968.428H474.082V967.548ZM480.108 967.548H481.758V964.148H480.008V963.268H481.758V962.338C481.758 961.951 481.865 961.638 482.078 961.398C482.291 961.151 482.625 961.028 483.078 961.028H484.818V961.908H482.848V963.268H484.818V964.148H482.848V967.548H484.588V968.428H480.108V967.548ZM488.324 968.528C488.004 968.528 487.778 968.461 487.644 968.328C487.518 968.194 487.454 968.031 487.454 967.838V967.578C487.454 967.384 487.518 967.221 487.644 967.088C487.778 966.954 488.004 966.888 488.324 966.888C488.644 966.888 488.868 966.954 488.994 967.088C489.128 967.221 489.194 967.384 489.194 967.578V967.838C489.194 968.031 489.128 968.194 488.994 968.328C488.868 968.461 488.644 968.528 488.324 968.528ZM104.774 985.548C103.888 985.548 103.228 985.234 102.794 984.608C102.368 983.981 102.154 983.091 102.154 981.938C102.154 980.784 102.368 979.894 102.794 979.268C103.228 978.641 103.888 978.328 104.774 978.328C105.114 978.328 105.408 978.374 105.654 978.468C105.908 978.554 106.124 978.678 106.304 978.838C106.484 978.991 106.634 979.174 106.754 979.388C106.881 979.594 106.984 979.818 107.064 980.058L106.054 980.398C106.001 980.238 105.941 980.088 105.874 979.948C105.808 979.808 105.724 979.688 105.624 979.588C105.524 979.488 105.404 979.408 105.264 979.348C105.131 979.288 104.964 979.258 104.764 979.258C104.271 979.258 103.911 979.448 103.684 979.828C103.458 980.201 103.344 980.708 103.344 981.348V982.528C103.344 983.168 103.458 983.678 103.684 984.058C103.911 984.431 104.271 984.618 104.764 984.618C104.964 984.618 105.131 984.588 105.264 984.528C105.404 984.468 105.524 984.388 105.624 984.288C105.724 984.188 105.808 984.068 105.874 983.928C105.941 983.788 106.001 983.638 106.054 983.478L107.064 983.818C106.984 984.058 106.881 984.284 106.754 984.498C106.634 984.704 106.484 984.888 106.304 985.048C106.124 985.201 105.908 985.324 105.654 985.418C105.408 985.504 105.114 985.548 104.774 985.548ZM108.41 978.028H109.5V981.148H109.55C109.604 981.014 109.67 980.888 109.75 980.768C109.837 980.641 109.94 980.534 110.06 980.448C110.18 980.354 110.32 980.281 110.48 980.228C110.64 980.174 110.827 980.148 111.04 980.148C111.56 980.148 111.98 980.318 112.3 980.658C112.62 980.998 112.78 981.481 112.78 982.108V985.428H111.69V982.268C111.69 981.448 111.334 981.038 110.62 981.038C110.48 981.038 110.344 981.058 110.21 981.098C110.077 981.131 109.957 981.184 109.85 981.258C109.744 981.331 109.657 981.424 109.59 981.538C109.53 981.651 109.5 981.781 109.5 981.928V985.428H108.41V978.028ZM116.676 985.548C116.283 985.548 115.93 985.484 115.616 985.358C115.303 985.231 115.04 985.051 114.826 984.818C114.613 984.584 114.45 984.304 114.336 983.978C114.223 983.644 114.166 983.271 114.166 982.858C114.166 982.444 114.223 982.071 114.336 981.738C114.456 981.404 114.62 981.121 114.826 980.888C115.04 980.648 115.296 980.464 115.596 980.338C115.896 980.211 116.23 980.148 116.596 980.148C116.956 980.148 117.283 980.211 117.576 980.338C117.87 980.458 118.12 980.631 118.326 980.858C118.533 981.084 118.69 981.354 118.796 981.668C118.91 981.981 118.966 982.328 118.966 982.708V983.118H115.266V983.288C115.266 983.694 115.393 984.028 115.646 984.288C115.9 984.541 116.25 984.668 116.696 984.668C117.03 984.668 117.313 984.598 117.546 984.458C117.786 984.311 117.98 984.118 118.126 983.878L118.806 984.478C118.633 984.778 118.366 985.031 118.006 985.238C117.653 985.444 117.21 985.548 116.676 985.548ZM116.596 980.978C116.403 980.978 116.223 981.011 116.056 981.078C115.896 981.144 115.756 981.241 115.636 981.368C115.523 981.488 115.433 981.631 115.366 981.798C115.3 981.964 115.266 982.148 115.266 982.348V982.418H117.856V982.318C117.856 981.911 117.74 981.588 117.506 981.348C117.28 981.101 116.976 980.978 116.596 980.978ZM122.753 985.548C122.366 985.548 122.019 985.484 121.713 985.358C121.413 985.231 121.156 985.051 120.943 984.818C120.736 984.584 120.576 984.301 120.463 983.968C120.356 983.634 120.303 983.261 120.303 982.848C120.303 982.434 120.356 982.061 120.463 981.728C120.576 981.394 120.736 981.111 120.943 980.878C121.156 980.644 121.413 980.464 121.713 980.338C122.019 980.211 122.363 980.148 122.743 980.148C123.276 980.148 123.703 980.261 124.023 980.488C124.349 980.714 124.593 981.008 124.753 981.368L123.903 981.828C123.809 981.588 123.666 981.398 123.473 981.258C123.286 981.118 123.043 981.048 122.743 981.048C122.329 981.048 122.009 981.174 121.783 981.428C121.556 981.674 121.443 982.004 121.443 982.418V983.278C121.443 983.684 121.556 984.014 121.783 984.268C122.009 984.521 122.336 984.648 122.763 984.648C123.083 984.648 123.343 984.574 123.543 984.428C123.749 984.281 123.913 984.081 124.033 983.828L124.833 984.318C124.666 984.678 124.413 984.974 124.073 985.208C123.733 985.434 123.293 985.548 122.753 985.548ZM126.439 978.028H127.529V982.498H127.579L128.389 981.668L129.839 980.268H131.129L129.039 982.298L131.359 985.428H130.049L128.249 982.918L127.529 983.588V985.428H126.439V978.028ZM140.551 985.548C140.171 985.548 139.827 985.484 139.521 985.358C139.221 985.231 138.964 985.051 138.751 984.818C138.544 984.584 138.384 984.301 138.271 983.968C138.157 983.634 138.101 983.261 138.101 982.848C138.101 982.434 138.157 982.061 138.271 981.728C138.384 981.394 138.544 981.111 138.751 980.878C138.964 980.644 139.221 980.464 139.521 980.338C139.827 980.211 140.171 980.148 140.551 980.148C140.931 980.148 141.271 980.211 141.571 980.338C141.877 980.464 142.134 980.644 142.341 980.878C142.554 981.111 142.717 981.394 142.831 981.728C142.944 982.061 143.001 982.434 143.001 982.848C143.001 983.261 142.944 983.634 142.831 983.968C142.717 984.301 142.554 984.584 142.341 984.818C142.134 985.051 141.877 985.231 141.571 985.358C141.271 985.484 140.931 985.548 140.551 985.548ZM140.551 984.688C140.951 984.688 141.267 984.568 141.501 984.328C141.741 984.081 141.861 983.718 141.861 983.238V982.458C141.861 981.978 141.741 981.618 141.501 981.378C141.267 981.131 140.951 981.008 140.551 981.008C140.151 981.008 139.831 981.131 139.591 981.378C139.357 981.618 139.241 981.978 139.241 982.458V983.238C139.241 983.718 139.357 984.081 139.591 984.328C139.831 984.568 140.151 984.688 140.551 984.688ZM147.617 984.548H147.567C147.514 984.681 147.444 984.811 147.357 984.938C147.277 985.058 147.177 985.164 147.057 985.258C146.937 985.344 146.797 985.414 146.637 985.468C146.477 985.521 146.29 985.548 146.077 985.548C145.557 985.548 145.137 985.378 144.817 985.038C144.497 984.698 144.337 984.214 144.337 983.588V980.268H145.427V983.428C145.427 984.248 145.784 984.658 146.497 984.658C146.637 984.658 146.774 984.641 146.907 984.608C147.04 984.568 147.16 984.511 147.267 984.438C147.374 984.364 147.457 984.274 147.517 984.168C147.584 984.054 147.617 983.921 147.617 983.768V980.268H148.707V985.428H147.617V984.548ZM152.853 985.428C152.4 985.428 152.066 985.308 151.853 985.068C151.64 984.821 151.533 984.504 151.533 984.118V981.148H149.943V980.268H151.073C151.266 980.268 151.403 980.231 151.483 980.158C151.563 980.078 151.603 979.938 151.603 979.738V978.448H152.623V980.268H154.823V981.148H152.623V984.548H154.823V985.428H152.853ZM164.735 985.548C163.848 985.548 163.188 985.234 162.755 984.608C162.328 983.981 162.115 983.091 162.115 981.938C162.115 980.784 162.328 979.894 162.755 979.268C163.188 978.641 163.848 978.328 164.735 978.328C165.075 978.328 165.368 978.374 165.615 978.468C165.868 978.554 166.085 978.678 166.265 978.838C166.445 978.991 166.595 979.174 166.715 979.388C166.842 979.594 166.945 979.818 167.025 980.058L166.015 980.398C165.962 980.238 165.902 980.088 165.835 979.948C165.768 979.808 165.685 979.688 165.585 979.588C165.485 979.488 165.365 979.408 165.225 979.348C165.092 979.288 164.925 979.258 164.725 979.258C164.232 979.258 163.872 979.448 163.645 979.828C163.418 980.201 163.305 980.708 163.305 981.348V982.528C163.305 983.168 163.418 983.678 163.645 984.058C163.872 984.431 164.232 984.618 164.725 984.618C164.925 984.618 165.092 984.588 165.225 984.528C165.365 984.468 165.485 984.388 165.585 984.288C165.685 984.188 165.768 984.068 165.835 983.928C165.902 983.788 165.962 983.638 166.015 983.478L167.025 983.818C166.945 984.058 166.842 984.284 166.715 984.498C166.595 984.704 166.445 984.888 166.265 985.048C166.085 985.201 165.868 985.324 165.615 985.418C165.368 985.504 165.075 985.548 164.735 985.548ZM168.371 978.028H169.461V981.148H169.511C169.565 981.014 169.631 980.888 169.711 980.768C169.798 980.641 169.901 980.534 170.021 980.448C170.141 980.354 170.281 980.281 170.441 980.228C170.601 980.174 170.788 980.148 171.001 980.148C171.521 980.148 171.941 980.318 172.261 980.658C172.581 980.998 172.741 981.481 172.741 982.108V985.428H171.651V982.268C171.651 981.448 171.295 981.038 170.581 981.038C170.441 981.038 170.305 981.058 170.171 981.098C170.038 981.131 169.918 981.184 169.811 981.258C169.705 981.331 169.618 981.424 169.551 981.538C169.491 981.651 169.461 981.781 169.461 981.928V985.428H168.371V978.028ZM178.447 985.428C178.134 985.428 177.897 985.348 177.737 985.188C177.584 985.028 177.491 984.818 177.457 984.558H177.407C177.307 984.871 177.124 985.114 176.857 985.288C176.597 985.461 176.264 985.548 175.857 985.548C175.331 985.548 174.911 985.411 174.597 985.138C174.284 984.858 174.127 984.474 174.127 983.988C174.127 983.488 174.311 983.108 174.677 982.848C175.051 982.581 175.621 982.448 176.387 982.448H177.377V982.048C177.377 981.348 177.007 980.998 176.267 980.998C175.934 980.998 175.664 981.064 175.457 981.198C175.251 981.324 175.077 981.494 174.937 981.708L174.287 981.178C174.434 980.898 174.681 980.658 175.027 980.458C175.374 980.251 175.821 980.148 176.367 980.148C177.021 980.148 177.534 980.304 177.907 980.618C178.281 980.931 178.467 981.384 178.467 981.978V984.568H179.117V985.428H178.447ZM176.167 984.748C176.521 984.748 176.811 984.668 177.037 984.508C177.264 984.348 177.377 984.141 177.377 983.888V983.138H176.407C175.621 983.138 175.227 983.374 175.227 983.848V984.048C175.227 984.281 175.311 984.458 175.477 984.578C175.644 984.691 175.874 984.748 176.167 984.748ZM180.283 984.548H181.653V981.148H180.283V980.268H182.743V981.638H182.803C182.85 981.458 182.917 981.284 183.003 981.118C183.09 980.951 183.2 980.808 183.333 980.688C183.467 980.561 183.63 980.461 183.823 980.388C184.017 980.308 184.243 980.268 184.503 980.268H185.123V981.308H184.103C183.703 981.308 183.377 981.428 183.123 981.668C182.87 981.901 182.743 982.218 182.743 982.618V984.548H184.613V985.428H180.283V984.548ZM186.27 984.548H187.98V978.908H186.27V978.028H189.07V984.548H190.78V985.428H186.27V984.548ZM194.836 979.328C194.556 979.328 194.359 979.271 194.246 979.158C194.139 979.044 194.086 978.904 194.086 978.738V978.528C194.086 978.361 194.139 978.221 194.246 978.108C194.359 977.994 194.552 977.938 194.826 977.938C195.106 977.938 195.299 977.994 195.406 978.108C195.519 978.221 195.576 978.361 195.576 978.528V978.738C195.576 978.904 195.519 979.044 195.406 979.158C195.299 979.271 195.109 979.328 194.836 979.328ZM192.526 984.548H194.286V981.148H192.526V980.268H195.376V984.548H197.026V985.428H192.526V984.548ZM200.622 985.548C200.228 985.548 199.875 985.484 199.562 985.358C199.248 985.231 198.985 985.051 198.772 984.818C198.558 984.584 198.395 984.304 198.282 983.978C198.168 983.644 198.112 983.271 198.112 982.858C198.112 982.444 198.168 982.071 198.282 981.738C198.402 981.404 198.565 981.121 198.772 980.888C198.985 980.648 199.242 980.464 199.542 980.338C199.842 980.211 200.175 980.148 200.542 980.148C200.902 980.148 201.228 980.211 201.522 980.338C201.815 980.458 202.065 980.631 202.272 980.858C202.478 981.084 202.635 981.354 202.742 981.668C202.855 981.981 202.912 982.328 202.912 982.708V983.118H199.212V983.288C199.212 983.694 199.338 984.028 199.592 984.288C199.845 984.541 200.195 984.668 200.642 984.668C200.975 984.668 201.258 984.598 201.492 984.458C201.732 984.311 201.925 984.118 202.072 983.878L202.752 984.478C202.578 984.778 202.312 985.031 201.952 985.238C201.598 985.444 201.155 985.548 200.622 985.548ZM200.542 980.978C200.348 980.978 200.168 981.011 200.002 981.078C199.842 981.144 199.702 981.241 199.582 981.368C199.468 981.488 199.378 981.631 199.312 981.798C199.245 981.964 199.212 982.148 199.212 982.348V982.418H201.802V982.318C201.802 981.911 201.685 981.588 201.452 981.348C201.225 981.101 200.922 980.978 200.542 980.978ZM206.148 978.028H207.698L206.448 981.008H205.608L206.148 978.028ZM212.514 985.548C211.954 985.548 211.471 985.458 211.064 985.278C210.664 985.098 210.341 984.858 210.094 984.558L210.764 983.958C210.991 984.204 211.244 984.394 211.524 984.528C211.811 984.654 212.147 984.718 212.534 984.718C212.887 984.718 213.171 984.658 213.384 984.538C213.604 984.418 213.714 984.231 213.714 983.978C213.714 983.871 213.694 983.781 213.654 983.708C213.614 983.634 213.557 983.574 213.484 983.528C213.411 983.481 213.324 983.444 213.224 983.418C213.131 983.391 213.031 983.371 212.924 983.358L212.104 983.228C211.904 983.201 211.701 983.158 211.494 983.098C211.287 983.038 211.101 982.954 210.934 982.848C210.774 982.734 210.641 982.591 210.534 982.418C210.434 982.244 210.384 982.024 210.384 981.758C210.384 981.231 210.584 980.831 210.984 980.558C211.391 980.284 211.924 980.148 212.584 980.148C213.064 980.148 213.477 980.221 213.824 980.368C214.177 980.508 214.471 980.704 214.704 980.958L214.094 981.598C213.961 981.444 213.771 981.304 213.524 981.178C213.277 981.044 212.951 980.978 212.544 980.978C211.817 980.978 211.454 981.208 211.454 981.668C211.454 981.888 211.531 982.041 211.684 982.128C211.844 982.208 212.031 982.261 212.244 982.288L213.064 982.418C213.271 982.451 213.474 982.494 213.674 982.548C213.881 982.601 214.064 982.684 214.224 982.798C214.391 982.904 214.524 983.044 214.624 983.218C214.731 983.391 214.784 983.611 214.784 983.878C214.784 984.398 214.581 984.808 214.174 985.108C213.774 985.401 213.221 985.548 212.514 985.548ZM224.506 985.548C223.946 985.548 223.463 985.458 223.056 985.278C222.656 985.098 222.333 984.858 222.086 984.558L222.756 983.958C222.983 984.204 223.236 984.394 223.516 984.528C223.803 984.654 224.139 984.718 224.526 984.718C224.879 984.718 225.163 984.658 225.376 984.538C225.596 984.418 225.706 984.231 225.706 983.978C225.706 983.871 225.686 983.781 225.646 983.708C225.606 983.634 225.549 983.574 225.476 983.528C225.403 983.481 225.316 983.444 225.216 983.418C225.123 983.391 225.023 983.371 224.916 983.358L224.096 983.228C223.896 983.201 223.693 983.158 223.486 983.098C223.279 983.038 223.093 982.954 222.926 982.848C222.766 982.734 222.633 982.591 222.526 982.418C222.426 982.244 222.376 982.024 222.376 981.758C222.376 981.231 222.576 980.831 222.976 980.558C223.383 980.284 223.916 980.148 224.576 980.148C225.056 980.148 225.469 980.221 225.816 980.368C226.169 980.508 226.463 980.704 226.696 980.958L226.086 981.598C225.953 981.444 225.763 981.304 225.516 981.178C225.269 981.044 224.943 980.978 224.536 980.978C223.809 980.978 223.446 981.208 223.446 981.668C223.446 981.888 223.523 982.041 223.676 982.128C223.836 982.208 224.023 982.261 224.236 982.288L225.056 982.418C225.263 982.451 225.466 982.494 225.666 982.548C225.873 982.601 226.056 982.684 226.216 982.798C226.383 982.904 226.516 983.044 226.616 983.218C226.723 983.391 226.776 983.611 226.776 983.878C226.776 984.398 226.573 984.808 226.166 985.108C225.766 985.401 225.213 985.548 224.506 985.548ZM230.812 979.328C230.532 979.328 230.336 979.271 230.222 979.158C230.116 979.044 230.062 978.904 230.062 978.738V978.528C230.062 978.361 230.116 978.221 230.222 978.108C230.336 977.994 230.529 977.938 230.802 977.938C231.082 977.938 231.276 977.994 231.382 978.108C231.496 978.221 231.552 978.361 231.552 978.528V978.738C231.552 978.904 231.496 979.044 231.382 979.158C231.276 979.271 231.086 979.328 230.812 979.328ZM228.502 984.548H230.262V981.148H228.502V980.268H231.352V984.548H233.002V985.428H228.502V984.548ZM236.798 985.428C236.345 985.428 236.012 985.308 235.798 985.068C235.585 984.821 235.478 984.504 235.478 984.118V981.148H233.888V980.268H235.018C235.212 980.268 235.348 980.231 235.428 980.158C235.508 980.078 235.548 979.938 235.548 979.738V978.448H236.568V980.268H238.768V981.148H236.568V984.548H238.768V985.428H236.798ZM242.594 985.548C242.201 985.548 241.848 985.484 241.534 985.358C241.221 985.231 240.958 985.051 240.744 984.818C240.531 984.584 240.368 984.304 240.254 983.978C240.141 983.644 240.084 983.271 240.084 982.858C240.084 982.444 240.141 982.071 240.254 981.738C240.374 981.404 240.538 981.121 240.744 980.888C240.958 980.648 241.214 980.464 241.514 980.338C241.814 980.211 242.148 980.148 242.514 980.148C242.874 980.148 243.201 980.211 243.494 980.338C243.788 980.458 244.038 980.631 244.244 980.858C244.451 981.084 244.608 981.354 244.714 981.668C244.828 981.981 244.884 982.328 244.884 982.708V983.118H241.184V983.288C241.184 983.694 241.311 984.028 241.564 984.288C241.818 984.541 242.168 984.668 242.614 984.668C242.948 984.668 243.231 984.598 243.464 984.458C243.704 984.311 243.898 984.118 244.044 983.878L244.724 984.478C244.551 984.778 244.284 985.031 243.924 985.238C243.571 985.444 243.128 985.548 242.594 985.548ZM242.514 980.978C242.321 980.978 242.141 981.011 241.974 981.078C241.814 981.144 241.674 981.241 241.554 981.368C241.441 981.488 241.351 981.631 241.284 981.798C241.218 981.964 241.184 982.148 241.184 982.348V982.418H243.774V982.318C243.774 981.911 243.658 981.588 243.424 981.348C243.198 981.101 242.894 980.978 242.514 980.978ZM252.257 984.548H253.907V981.148H252.157V980.268H253.907V979.338C253.907 978.951 254.013 978.638 254.227 978.398C254.44 978.151 254.773 978.028 255.227 978.028H256.967V978.908H254.997V980.268H256.967V981.148H254.997V984.548H256.737V985.428H252.257V984.548ZM260.473 985.548C260.093 985.548 259.749 985.484 259.443 985.358C259.143 985.231 258.886 985.051 258.673 984.818C258.466 984.584 258.306 984.301 258.193 983.968C258.079 983.634 258.023 983.261 258.023 982.848C258.023 982.434 258.079 982.061 258.193 981.728C258.306 981.394 258.466 981.111 258.673 980.878C258.886 980.644 259.143 980.464 259.443 980.338C259.749 980.211 260.093 980.148 260.473 980.148C260.853 980.148 261.193 980.211 261.493 980.338C261.799 980.464 262.056 980.644 262.263 980.878C262.476 981.111 262.639 981.394 262.753 981.728C262.866 982.061 262.923 982.434 262.923 982.848C262.923 983.261 262.866 983.634 262.753 983.968C262.639 984.301 262.476 984.584 262.263 984.818C262.056 985.051 261.799 985.231 261.493 985.358C261.193 985.484 260.853 985.548 260.473 985.548ZM260.473 984.688C260.873 984.688 261.189 984.568 261.423 984.328C261.663 984.081 261.783 983.718 261.783 983.238V982.458C261.783 981.978 261.663 981.618 261.423 981.378C261.189 981.131 260.873 981.008 260.473 981.008C260.073 981.008 259.753 981.131 259.513 981.378C259.279 981.618 259.163 981.978 259.163 982.458V983.238C259.163 983.718 259.279 984.081 259.513 984.328C259.753 984.568 260.073 984.688 260.473 984.688ZM264.229 984.548H265.599V981.148H264.229V980.268H266.689V981.638H266.749C266.795 981.458 266.862 981.284 266.949 981.118C267.035 980.951 267.145 980.808 267.279 980.688C267.412 980.561 267.575 980.461 267.769 980.388C267.962 980.308 268.189 980.268 268.449 980.268H269.069V981.308H268.049C267.649 981.308 267.322 981.428 267.069 981.668C266.815 981.901 266.689 982.218 266.689 982.618V984.548H268.559V985.428H264.229V984.548ZM276.341 978.028H277.431V982.498H277.481L278.291 981.668L279.741 980.268H281.031L278.941 982.298L281.261 985.428H279.951L278.151 982.918L277.431 983.588V985.428H276.341V978.028ZM284.777 979.328C284.497 979.328 284.3 979.271 284.187 979.158C284.08 979.044 284.027 978.904 284.027 978.738V978.528C284.027 978.361 284.08 978.221 284.187 978.108C284.3 977.994 284.494 977.938 284.767 977.938C285.047 977.938 285.24 977.994 285.347 978.108C285.46 978.221 285.517 978.361 285.517 978.528V978.738C285.517 978.904 285.46 979.044 285.347 979.158C285.24 979.271 285.05 979.328 284.777 979.328ZM282.467 984.548H284.227V981.148H282.467V980.268H285.317V984.548H286.967V985.428H282.467V984.548ZM288.203 984.548H289.913V978.908H288.203V978.028H291.003V984.548H292.713V985.428H288.203V984.548ZM294.199 984.548H295.909V978.908H294.199V978.028H296.999V984.548H298.709V985.428H294.199V984.548ZM302.555 985.548C302.162 985.548 301.809 985.484 301.495 985.358C301.182 985.231 300.919 985.051 300.705 984.818C300.492 984.584 300.329 984.304 300.215 983.978C300.102 983.644 300.045 983.271 300.045 982.858C300.045 982.444 300.102 982.071 300.215 981.738C300.335 981.404 300.499 981.121 300.705 980.888C300.919 980.648 301.175 980.464 301.475 980.338C301.775 980.211 302.109 980.148 302.475 980.148C302.835 980.148 303.162 980.211 303.455 980.338C303.749 980.458 303.999 980.631 304.205 980.858C304.412 981.084 304.569 981.354 304.675 981.668C304.789 981.981 304.845 982.328 304.845 982.708V983.118H301.145V983.288C301.145 983.694 301.272 984.028 301.525 984.288C301.779 984.541 302.129 984.668 302.575 984.668C302.909 984.668 303.192 984.598 303.425 984.458C303.665 984.311 303.859 984.118 304.005 983.878L304.685 984.478C304.512 984.778 304.245 985.031 303.885 985.238C303.532 985.444 303.089 985.548 302.555 985.548ZM302.475 980.978C302.282 980.978 302.102 981.011 301.935 981.078C301.775 981.144 301.635 981.241 301.515 981.368C301.402 981.488 301.312 981.631 301.245 981.798C301.179 981.964 301.145 982.148 301.145 982.348V982.418H303.735V982.318C303.735 981.911 303.619 981.588 303.385 981.348C303.159 981.101 302.855 980.978 302.475 980.978ZM306.201 984.548H307.571V981.148H306.201V980.268H308.661V981.638H308.721C308.768 981.458 308.835 981.284 308.921 981.118C309.008 980.951 309.118 980.808 309.251 980.688C309.385 980.561 309.548 980.461 309.741 980.388C309.935 980.308 310.161 980.268 310.421 980.268H311.041V981.308H310.021C309.621 981.308 309.295 981.428 309.041 981.668C308.788 981.901 308.661 982.218 308.661 982.618V984.548H310.531V985.428H306.201V984.548ZM318.224 978.028H319.314V981.148H319.374C319.527 980.834 319.73 980.591 319.984 980.418C320.237 980.238 320.554 980.148 320.934 980.148C321.54 980.148 322.024 980.374 322.384 980.828C322.744 981.281 322.924 981.954 322.924 982.848C322.924 983.741 322.744 984.414 322.384 984.868C322.024 985.321 321.54 985.548 320.934 985.548C320.554 985.548 320.237 985.461 319.984 985.288C319.73 985.108 319.527 984.861 319.374 984.548H319.314V985.428H318.224V978.028ZM320.484 984.658C320.897 984.658 321.214 984.531 321.434 984.278C321.66 984.024 321.774 983.688 321.774 983.268V982.428C321.774 982.008 321.66 981.671 321.434 981.418C321.214 981.164 320.897 981.038 320.484 981.038C320.324 981.038 320.174 981.058 320.034 981.098C319.894 981.138 319.77 981.198 319.664 981.278C319.557 981.358 319.47 981.458 319.404 981.578C319.344 981.691 319.314 981.828 319.314 981.988V983.708C319.314 983.868 319.344 984.008 319.404 984.128C319.47 984.241 319.557 984.338 319.664 984.418C319.77 984.498 319.894 984.558 320.034 984.598C320.174 984.638 320.324 984.658 320.484 984.658ZM324.19 984.548H325.56V981.148H324.19V980.268H326.65V981.638H326.71C326.756 981.458 326.823 981.284 326.91 981.118C326.996 980.951 327.106 980.808 327.24 980.688C327.373 980.561 327.536 980.461 327.73 980.388C327.923 980.308 328.15 980.268 328.41 980.268H329.03V981.308H328.01C327.61 981.308 327.283 981.428 327.03 981.668C326.776 981.901 326.65 982.218 326.65 982.618V984.548H328.52V985.428H324.19V984.548ZM334.346 985.428C334.032 985.428 333.796 985.348 333.636 985.188C333.482 985.028 333.389 984.818 333.356 984.558H333.306C333.206 984.871 333.022 985.114 332.756 985.288C332.496 985.461 332.162 985.548 331.756 985.548C331.229 985.548 330.809 985.411 330.496 985.138C330.182 984.858 330.026 984.474 330.026 983.988C330.026 983.488 330.209 983.108 330.576 982.848C330.949 982.581 331.519 982.448 332.286 982.448H333.276V982.048C333.276 981.348 332.906 980.998 332.166 980.998C331.832 980.998 331.562 981.064 331.356 981.198C331.149 981.324 330.976 981.494 330.836 981.708L330.186 981.178C330.332 980.898 330.579 980.658 330.926 980.458C331.272 980.251 331.719 980.148 332.266 980.148C332.919 980.148 333.432 980.304 333.806 980.618C334.179 980.931 334.366 981.384 334.366 981.978V984.568H335.016V985.428H334.346ZM332.066 984.748C332.419 984.748 332.709 984.668 332.936 984.508C333.162 984.348 333.276 984.141 333.276 983.888V983.138H332.306C331.519 983.138 331.126 983.374 331.126 983.848V984.048C331.126 984.281 331.209 984.458 331.376 984.578C331.542 984.691 331.772 984.748 332.066 984.748ZM336.262 985.428V980.268H337.352V981.148H337.402C337.455 981.014 337.522 980.888 337.602 980.768C337.689 980.641 337.792 980.534 337.912 980.448C338.032 980.354 338.172 980.281 338.332 980.228C338.492 980.174 338.679 980.148 338.892 980.148C339.412 980.148 339.832 980.318 340.152 980.658C340.472 980.998 340.632 981.481 340.632 982.108V985.428H339.542V982.268C339.542 981.448 339.185 981.038 338.472 981.038C338.332 981.038 338.195 981.058 338.062 981.098C337.929 981.131 337.809 981.184 337.702 981.258C337.595 981.331 337.509 981.424 337.442 981.538C337.382 981.651 337.352 981.781 337.352 981.928V985.428H336.262ZM345.538 984.548H345.478C345.325 984.861 345.121 985.108 344.868 985.288C344.615 985.461 344.298 985.548 343.918 985.548C343.311 985.548 342.828 985.321 342.468 984.868C342.108 984.414 341.928 983.741 341.928 982.848C341.928 981.954 342.108 981.281 342.468 980.828C342.828 980.374 343.311 980.148 343.918 980.148C344.298 980.148 344.615 980.238 344.868 980.418C345.121 980.591 345.325 980.834 345.478 981.148H345.538V978.028H346.628V985.428H345.538V984.548ZM344.368 984.658C344.528 984.658 344.678 984.638 344.818 984.598C344.958 984.558 345.081 984.498 345.188 984.418C345.295 984.338 345.378 984.241 345.438 984.128C345.505 984.008 345.538 983.868 345.538 983.708V981.988C345.538 981.828 345.505 981.691 345.438 981.578C345.378 981.458 345.295 981.358 345.188 981.278C345.081 981.198 344.958 981.138 344.818 981.098C344.678 981.058 344.528 981.038 344.368 981.038C343.955 981.038 343.635 981.164 343.408 981.418C343.188 981.671 343.078 982.008 343.078 982.428V983.268C343.078 983.688 343.188 984.024 343.408 984.278C343.635 984.531 343.955 984.658 344.368 984.658ZM350.734 979.328C350.454 979.328 350.257 979.271 350.144 979.158C350.037 979.044 349.984 978.904 349.984 978.738V978.528C349.984 978.361 350.037 978.221 350.144 978.108C350.257 977.994 350.451 977.938 350.724 977.938C351.004 977.938 351.197 977.994 351.304 978.108C351.417 978.221 351.474 978.361 351.474 978.528V978.738C351.474 978.904 351.417 979.044 351.304 979.158C351.197 979.271 351.007 979.328 350.734 979.328ZM348.424 984.548H350.184V981.148H348.424V980.268H351.274V984.548H352.924V985.428H348.424V984.548ZM354.25 985.428V980.268H355.34V981.148H355.39C355.443 981.014 355.51 980.888 355.59 980.768C355.677 980.641 355.78 980.534 355.9 980.448C356.02 980.354 356.16 980.281 356.32 980.228C356.48 980.174 356.667 980.148 356.88 980.148C357.4 980.148 357.82 980.318 358.14 980.658C358.46 980.998 358.62 981.481 358.62 982.108V985.428H357.53V982.268C357.53 981.448 357.173 981.038 356.46 981.038C356.32 981.038 356.183 981.058 356.05 981.098C355.917 981.131 355.797 981.184 355.69 981.258C355.583 981.331 355.497 981.424 355.43 981.538C355.37 981.651 355.34 981.781 355.34 981.928V985.428H354.25ZM365.106 985.988C365.106 986.521 364.883 986.914 364.436 987.168C363.99 987.421 363.31 987.548 362.396 987.548C361.95 987.548 361.573 987.518 361.266 987.458C360.966 987.404 360.72 987.324 360.526 987.218C360.34 987.111 360.203 986.981 360.116 986.828C360.036 986.674 359.996 986.501 359.996 986.308C359.996 986.028 360.073 985.808 360.226 985.648C360.386 985.494 360.61 985.381 360.896 985.308V985.208C360.723 985.141 360.583 985.048 360.476 984.928C360.376 984.808 360.326 984.651 360.326 984.458C360.326 984.204 360.413 984.014 360.586 983.888C360.76 983.754 360.983 983.654 361.256 983.588V983.538C360.943 983.391 360.7 983.184 360.526 982.918C360.353 982.651 360.266 982.331 360.266 981.958C360.266 981.684 360.316 981.438 360.416 981.218C360.516 980.991 360.656 980.801 360.836 980.648C361.023 980.488 361.243 980.364 361.496 980.278C361.756 980.191 362.046 980.148 362.366 980.148C362.726 980.148 363.05 980.204 363.336 980.318V980.148C363.336 979.948 363.393 979.781 363.506 979.648C363.62 979.514 363.793 979.448 364.026 979.448H364.966V980.308H363.766V980.548C363.993 980.701 364.166 980.898 364.286 981.138C364.406 981.371 364.466 981.644 364.466 981.958C364.466 982.231 364.416 982.481 364.316 982.708C364.216 982.928 364.073 983.118 363.886 983.278C363.706 983.431 363.486 983.551 363.226 983.638C362.973 983.718 362.686 983.758 362.366 983.758C362.14 983.758 361.926 983.738 361.726 983.698C361.606 983.731 361.486 983.788 361.366 983.868C361.246 983.948 361.186 984.058 361.186 984.198C361.186 984.358 361.263 984.458 361.416 984.498C361.57 984.538 361.76 984.558 361.986 984.558H363.146C363.84 984.558 364.34 984.691 364.646 984.958C364.953 985.218 365.106 985.561 365.106 985.988ZM364.086 986.058C364.086 985.884 364.016 985.744 363.876 985.638C363.736 985.538 363.483 985.488 363.116 985.488H361.326C361.073 985.608 360.946 985.801 360.946 986.068C360.946 986.261 361.026 986.428 361.186 986.568C361.353 986.708 361.626 986.778 362.006 986.778H362.816C363.23 986.778 363.543 986.714 363.756 986.588C363.976 986.468 364.086 986.291 364.086 986.058ZM362.366 983.008C362.72 983.008 362.98 982.924 363.146 982.758C363.313 982.591 363.396 982.368 363.396 982.088V981.818C363.396 981.538 363.313 981.314 363.146 981.148C362.98 980.981 362.72 980.898 362.366 980.898C362.013 980.898 361.753 980.981 361.586 981.148C361.42 981.314 361.336 981.538 361.336 981.818V982.088C361.336 982.368 361.42 982.591 361.586 982.758C361.753 982.924 362.013 983.008 362.366 983.008ZM373.908 984.808V982.818H372.018V981.928H373.908V979.938H374.888V981.928H376.778V982.818H374.888V984.808H373.908ZM385.721 985.428L383.871 980.268H385.001L385.711 982.448L386.381 984.518H386.441L387.111 982.448L387.821 980.268H388.911L387.061 985.428H385.721ZM392.707 979.328C392.427 979.328 392.23 979.271 392.117 979.158C392.01 979.044 391.957 978.904 391.957 978.738V978.528C391.957 978.361 392.01 978.221 392.117 978.108C392.23 977.994 392.423 977.938 392.697 977.938C392.977 977.938 393.17 977.994 393.277 978.108C393.39 978.221 393.447 978.361 393.447 978.528V978.738C393.447 978.904 393.39 979.044 393.277 979.158C393.17 979.271 392.98 979.328 392.707 979.328ZM390.397 984.548H392.157V981.148H390.397V980.268H393.247V984.548H394.897V985.428H390.397V984.548ZM398.393 985.548C397.833 985.548 397.349 985.458 396.943 985.278C396.543 985.098 396.219 984.858 395.973 984.558L396.643 983.958C396.869 984.204 397.123 984.394 397.403 984.528C397.689 984.654 398.026 984.718 398.413 984.718C398.766 984.718 399.049 984.658 399.263 984.538C399.483 984.418 399.593 984.231 399.593 983.978C399.593 983.871 399.573 983.781 399.533 983.708C399.493 983.634 399.436 983.574 399.363 983.528C399.289 983.481 399.203 983.444 399.103 983.418C399.009 983.391 398.909 983.371 398.803 983.358L397.983 983.228C397.783 983.201 397.579 983.158 397.373 983.098C397.166 983.038 396.979 982.954 396.813 982.848C396.653 982.734 396.519 982.591 396.413 982.418C396.313 982.244 396.263 982.024 396.263 981.758C396.263 981.231 396.463 980.831 396.863 980.558C397.269 980.284 397.803 980.148 398.463 980.148C398.943 980.148 399.356 980.221 399.703 980.368C400.056 980.508 400.349 980.704 400.583 980.958L399.973 981.598C399.839 981.444 399.649 981.304 399.403 981.178C399.156 981.044 398.829 980.978 398.423 980.978C397.696 980.978 397.333 981.208 397.333 981.668C397.333 981.888 397.409 982.041 397.563 982.128C397.723 982.208 397.909 982.261 398.123 982.288L398.943 982.418C399.149 982.451 399.353 982.494 399.553 982.548C399.759 982.601 399.943 982.684 400.103 982.798C400.269 982.904 400.403 983.044 400.503 983.218C400.609 983.391 400.663 983.611 400.663 983.878C400.663 984.398 400.459 984.808 400.053 985.108C399.653 985.401 399.099 985.548 398.393 985.548ZM405.449 984.548H405.399C405.346 984.681 405.276 984.811 405.189 984.938C405.109 985.058 405.009 985.164 404.889 985.258C404.769 985.344 404.629 985.414 404.469 985.468C404.309 985.521 404.122 985.548 403.909 985.548C403.389 985.548 402.969 985.378 402.649 985.038C402.329 984.698 402.169 984.214 402.169 983.588V980.268H403.259V983.428C403.259 984.248 403.616 984.658 404.329 984.658C404.469 984.658 404.606 984.641 404.739 984.608C404.872 984.568 404.992 984.511 405.099 984.438C405.206 984.364 405.289 984.274 405.349 984.168C405.416 984.054 405.449 983.921 405.449 983.768V980.268H406.539V985.428H405.449V984.548ZM412.295 985.428C411.982 985.428 411.745 985.348 411.585 985.188C411.432 985.028 411.338 984.818 411.305 984.558H411.255C411.155 984.871 410.972 985.114 410.705 985.288C410.445 985.461 410.112 985.548 409.705 985.548C409.178 985.548 408.758 985.411 408.445 985.138C408.132 984.858 407.975 984.474 407.975 983.988C407.975 983.488 408.158 983.108 408.525 982.848C408.898 982.581 409.468 982.448 410.235 982.448H411.225V982.048C411.225 981.348 410.855 980.998 410.115 980.998C409.782 980.998 409.512 981.064 409.305 981.198C409.098 981.324 408.925 981.494 408.785 981.708L408.135 981.178C408.282 980.898 408.528 980.658 408.875 980.458C409.222 980.251 409.668 980.148 410.215 980.148C410.868 980.148 411.382 980.304 411.755 980.618C412.128 980.931 412.315 981.384 412.315 981.978V984.568H412.965V985.428H412.295ZM410.015 984.748C410.368 984.748 410.658 984.668 410.885 984.508C411.112 984.348 411.225 984.141 411.225 983.888V983.138H410.255C409.468 983.138 409.075 983.374 409.075 983.848V984.048C409.075 984.281 409.158 984.458 409.325 984.578C409.492 984.691 409.722 984.748 410.015 984.748ZM414.121 984.548H415.831V978.908H414.121V978.028H416.921V984.548H418.631V985.428H414.121V984.548ZM429.483 984.548H429.423C429.27 984.861 429.067 985.108 428.813 985.288C428.56 985.461 428.243 985.548 427.863 985.548C427.257 985.548 426.773 985.321 426.413 984.868C426.053 984.414 425.873 983.741 425.873 982.848C425.873 981.954 426.053 981.281 426.413 980.828C426.773 980.374 427.257 980.148 427.863 980.148C428.243 980.148 428.56 980.238 428.813 980.418C429.067 980.591 429.27 980.834 429.423 981.148H429.483V978.028H430.573V985.428H429.483V984.548ZM428.313 984.658C428.473 984.658 428.623 984.638 428.763 984.598C428.903 984.558 429.027 984.498 429.133 984.418C429.24 984.338 429.323 984.241 429.383 984.128C429.45 984.008 429.483 983.868 429.483 983.708V981.988C429.483 981.828 429.45 981.691 429.383 981.578C429.323 981.458 429.24 981.358 429.133 981.278C429.027 981.198 428.903 981.138 428.763 981.098C428.623 981.058 428.473 981.038 428.313 981.038C427.9 981.038 427.58 981.164 427.353 981.418C427.133 981.671 427.023 982.008 427.023 982.428V983.268C427.023 983.688 427.133 984.024 427.353 984.278C427.58 984.531 427.9 984.658 428.313 984.658ZM434.469 985.548C434.076 985.548 433.723 985.484 433.409 985.358C433.096 985.231 432.833 985.051 432.619 984.818C432.406 984.584 432.243 984.304 432.129 983.978C432.016 983.644 431.959 983.271 431.959 982.858C431.959 982.444 432.016 982.071 432.129 981.738C432.249 981.404 432.413 981.121 432.619 980.888C432.833 980.648 433.089 980.464 433.389 980.338C433.689 980.211 434.023 980.148 434.389 980.148C434.749 980.148 435.076 980.211 435.369 980.338C435.663 980.458 435.913 980.631 436.119 980.858C436.326 981.084 436.483 981.354 436.589 981.668C436.703 981.981 436.759 982.328 436.759 982.708V983.118H433.059V983.288C433.059 983.694 433.186 984.028 433.439 984.288C433.693 984.541 434.043 984.668 434.489 984.668C434.823 984.668 435.106 984.598 435.339 984.458C435.579 984.311 435.773 984.118 435.919 983.878L436.599 984.478C436.426 984.778 436.159 985.031 435.799 985.238C435.446 985.444 435.003 985.548 434.469 985.548ZM434.389 980.978C434.196 980.978 434.016 981.011 433.849 981.078C433.689 981.144 433.549 981.241 433.429 981.368C433.316 981.488 433.226 981.631 433.159 981.798C433.093 981.964 433.059 982.148 433.059 982.348V982.418H435.649V982.318C435.649 981.911 435.533 981.588 435.299 981.348C435.073 981.101 434.769 980.978 434.389 980.978ZM440.365 985.548C439.805 985.548 439.322 985.458 438.915 985.278C438.515 985.098 438.192 984.858 437.945 984.558L438.615 983.958C438.842 984.204 439.095 984.394 439.375 984.528C439.662 984.654 439.999 984.718 440.385 984.718C440.739 984.718 441.022 984.658 441.235 984.538C441.455 984.418 441.565 984.231 441.565 983.978C441.565 983.871 441.545 983.781 441.505 983.708C441.465 983.634 441.409 983.574 441.335 983.528C441.262 983.481 441.175 983.444 441.075 983.418C440.982 983.391 440.882 983.371 440.775 983.358L439.955 983.228C439.755 983.201 439.552 983.158 439.345 983.098C439.139 983.038 438.952 982.954 438.785 982.848C438.625 982.734 438.492 982.591 438.385 982.418C438.285 982.244 438.235 982.024 438.235 981.758C438.235 981.231 438.435 980.831 438.835 980.558C439.242 980.284 439.775 980.148 440.435 980.148C440.915 980.148 441.329 980.221 441.675 980.368C442.029 980.508 442.322 980.704 442.555 980.958L441.945 981.598C441.812 981.444 441.622 981.304 441.375 981.178C441.129 981.044 440.802 980.978 440.395 980.978C439.669 980.978 439.305 981.208 439.305 981.668C439.305 981.888 439.382 982.041 439.535 982.128C439.695 982.208 439.882 982.261 440.095 982.288L440.915 982.418C441.122 982.451 441.325 982.494 441.525 982.548C441.732 982.601 441.915 982.684 442.075 982.798C442.242 982.904 442.375 983.044 442.475 983.218C442.582 983.391 442.635 983.611 442.635 983.878C442.635 984.398 442.432 984.808 442.025 985.108C441.625 985.401 441.072 985.548 440.365 985.548ZM446.672 979.328C446.392 979.328 446.195 979.271 446.082 979.158C445.975 979.044 445.922 978.904 445.922 978.738V978.528C445.922 978.361 445.975 978.221 446.082 978.108C446.195 977.994 446.388 977.938 446.662 977.938C446.942 977.938 447.135 977.994 447.242 978.108C447.355 978.221 447.412 978.361 447.412 978.528V978.738C447.412 978.904 447.355 979.044 447.242 979.158C447.135 979.271 446.945 979.328 446.672 979.328ZM444.362 984.548H446.122V981.148H444.362V980.268H447.212V984.548H448.862V985.428H444.362V984.548ZM455.048 985.988C455.048 986.521 454.824 986.914 454.378 987.168C453.931 987.421 453.251 987.548 452.338 987.548C451.891 987.548 451.514 987.518 451.208 987.458C450.908 987.404 450.661 987.324 450.468 987.218C450.281 987.111 450.144 986.981 450.058 986.828C449.978 986.674 449.938 986.501 449.938 986.308C449.938 986.028 450.014 985.808 450.168 985.648C450.328 985.494 450.551 985.381 450.838 985.308V985.208C450.664 985.141 450.524 985.048 450.418 984.928C450.318 984.808 450.268 984.651 450.268 984.458C450.268 984.204 450.354 984.014 450.528 983.888C450.701 983.754 450.924 983.654 451.198 983.588V983.538C450.884 983.391 450.641 983.184 450.468 982.918C450.294 982.651 450.208 982.331 450.208 981.958C450.208 981.684 450.258 981.438 450.358 981.218C450.458 980.991 450.598 980.801 450.778 980.648C450.964 980.488 451.184 980.364 451.438 980.278C451.698 980.191 451.988 980.148 452.308 980.148C452.668 980.148 452.991 980.204 453.278 980.318V980.148C453.278 979.948 453.334 979.781 453.448 979.648C453.561 979.514 453.734 979.448 453.968 979.448H454.908V980.308H453.708V980.548C453.934 980.701 454.108 980.898 454.228 981.138C454.348 981.371 454.408 981.644 454.408 981.958C454.408 982.231 454.358 982.481 454.258 982.708C454.158 982.928 454.014 983.118 453.828 983.278C453.648 983.431 453.428 983.551 453.168 983.638C452.914 983.718 452.628 983.758 452.308 983.758C452.081 983.758 451.868 983.738 451.668 983.698C451.548 983.731 451.428 983.788 451.308 983.868C451.188 983.948 451.128 984.058 451.128 984.198C451.128 984.358 451.204 984.458 451.358 984.498C451.511 984.538 451.701 984.558 451.928 984.558H453.088C453.781 984.558 454.281 984.691 454.588 984.958C454.894 985.218 455.048 985.561 455.048 985.988ZM454.028 986.058C454.028 985.884 453.958 985.744 453.818 985.638C453.678 985.538 453.424 985.488 453.058 985.488H451.268C451.014 985.608 450.888 985.801 450.888 986.068C450.888 986.261 450.968 986.428 451.128 986.568C451.294 986.708 451.568 986.778 451.948 986.778H452.758C453.171 986.778 453.484 986.714 453.698 986.588C453.918 986.468 454.028 986.291 454.028 986.058ZM452.308 983.008C452.661 983.008 452.921 982.924 453.088 982.758C453.254 982.591 453.338 982.368 453.338 982.088V981.818C453.338 981.538 453.254 981.314 453.088 981.148C452.921 980.981 452.661 980.898 452.308 980.898C451.954 980.898 451.694 980.981 451.528 981.148C451.361 981.314 451.278 981.538 451.278 981.818V982.088C451.278 982.368 451.361 982.591 451.528 982.758C451.694 982.924 451.954 983.008 452.308 983.008ZM456.184 985.428V980.268H457.274V981.148H457.324C457.377 981.014 457.444 980.888 457.524 980.768C457.61 980.641 457.714 980.534 457.834 980.448C457.954 980.354 458.094 980.281 458.254 980.228C458.414 980.174 458.6 980.148 458.814 980.148C459.334 980.148 459.754 980.318 460.074 980.658C460.394 980.998 460.554 981.481 460.554 982.108V985.428H459.464V982.268C459.464 981.448 459.107 981.038 458.394 981.038C458.254 981.038 458.117 981.058 457.984 981.098C457.85 981.131 457.73 981.184 457.624 981.258C457.517 981.331 457.43 981.424 457.364 981.538C457.304 981.651 457.274 981.781 457.274 981.928V985.428H456.184ZM464.34 985.528C464.02 985.528 463.793 985.461 463.66 985.328C463.533 985.194 463.47 985.031 463.47 984.838V984.578C463.47 984.384 463.533 984.221 463.66 984.088C463.793 983.954 464.02 983.888 464.34 983.888C464.66 983.888 464.883 983.954 465.01 984.088C465.143 984.221 465.21 984.384 465.21 984.578V984.838C465.21 985.031 465.143 985.194 465.01 985.328C464.883 985.461 464.66 985.528 464.34 985.528Z" fill="white"/>
<path d="M72.218 968.635C73.1766 968.635 73.9536 967.858 73.9536 966.9C73.9536 965.941 73.1766 965.164 72.218 965.164C71.2595 965.164 70.4824 965.941 70.4824 966.9C70.4824 967.858 71.2595 968.635 72.218 968.635Z" fill="white"/>
<path d="M75.5935 970.466C75.2551 970.128 74.6737 969.503 73.5455 969.503C73.3633 969.503 72.3133 969.503 71.3413 969.503C68.9549 969.495 67.011 967.551 67.011 965.164H65.2754C65.2754 967.906 67.1065 970.232 69.6144 970.987V982.52H71.35V977.313H73.0856V982.52H74.8212V972.15L78.249 975.578L79.4726 974.354L75.5935 970.466Z" fill="white"/>
<path d="M58.3328 968.635C57.3742 968.635 56.5972 967.858 56.5972 966.9C56.5972 965.941 57.3742 965.164 58.3328 965.164C59.2913 965.164 60.0684 965.941 60.0684 966.9C60.0684 967.858 59.2913 968.635 58.3328 968.635Z" fill="white"/>
<path d="M54.9572 970.466C55.2957 970.128 55.8771 969.503 57.0052 969.503C57.1875 969.503 58.2375 969.503 59.2095 969.503C61.5959 969.495 63.5398 967.551 63.5398 965.164H65.2754C65.2754 967.906 63.4443 970.232 60.9364 970.987V982.52H59.2008V977.313H57.4652V982.52H55.7296V972.15L52.3018 975.578L51.0782 974.354L54.9572 970.466Z" fill="white"/></g>
</svg>