<svg xmlns="http://www.w3.org/2000/svg" viewBox="51 963 30 21" fill="none" aria-hidden="true">
  <path d="M75.5935 970.466C75.2551 970.128 74.6737 969.503 73.5455 969.503C73.3633 969.503 72.3133 969.503 71.3413 969.503C68.9549 969.495 67.011 967.551 67.011 965.164H65.2754C65.2754 967.906 67.1065 970.232 69.6144 970.987V982.52H71.35V977.313H73.0856V982.52H74.8212V972.15L78.249 975.578L79.4726 974.354L75.5935 970.466Z" fill="#000000"/>
  <path d="M54.9572 970.466C55.2957 970.128 55.8771 969.503 57.0052 969.503C57.1875 969.503 58.2375 969.503 59.2095 969.503C61.5959 969.495 63.5398 967.551 63.5398 965.164H65.2754C65.2754 967.906 63.4443 970.232 60.9364 970.987V982.52H59.2008V977.313H57.4652V982.52H55.7296V972.15L52.3018 975.578L51.0782 974.354L54.9572 970.466Z" fill="#000000"/>
</svg>
