<svg width="28" height="28" viewBox="0 0 28 28" fill="none" xmlns="http://www.w3.org/2000/svg">
<path d="M11.2449 12.3305C11.3145 11.8712 11.4676 11.4676 11.6624 11.1197C11.8573 10.7718 12.1356 10.4795 12.4835 10.2568C12.8175 10.0481 13.2351 9.95065 13.75 9.93673C14.0701 9.95065 14.3623 10.0063 14.6268 10.1177C14.9051 10.2429 15.1556 10.4099 15.3504 10.6187C15.5453 10.8274 15.6984 11.0779 15.8236 11.3563C15.9489 11.6346 16.0045 11.9408 16.0185 12.247H18.5096C18.4818 11.5929 18.3565 10.9944 18.1199 10.4517C17.8833 9.9089 17.5632 9.43572 17.1457 9.04604C16.7282 8.65637 16.2272 8.35019 15.6427 8.12752C15.0582 7.90485 14.418 7.80743 13.7082 7.80743C12.8036 7.80743 12.0104 7.96052 11.3423 8.28061C10.6743 8.6007 10.1177 9.01821 9.67231 9.56097C9.22696 10.1037 8.89296 10.73 8.6842 11.4537C8.47545 12.1774 8.35019 12.9289 8.35019 13.7361V14.1118C8.35019 14.919 8.46153 15.6705 8.67029 16.3942C8.87904 17.1179 9.21305 17.7442 9.65839 18.273C10.1037 18.8019 10.6604 19.2333 11.3284 19.5395C11.9964 19.8456 12.7897 20.0126 13.6943 20.0126C14.3484 20.0126 14.9608 19.9013 15.5314 19.6925C16.102 19.4838 16.603 19.1915 17.0344 18.8158C17.4658 18.44 17.8137 18.0086 18.0643 17.5076C18.3148 17.0066 18.4678 16.4777 18.4818 15.9071H15.9906C15.9767 16.1994 15.9071 16.4638 15.7819 16.7143C15.6566 16.9648 15.4896 17.1736 15.2809 17.3545C15.0721 17.5354 14.8355 17.6746 14.5572 17.772C14.2928 17.8694 14.0144 17.8973 13.7222 17.9112C13.2211 17.8973 12.8036 17.7998 12.4835 17.5911C12.1356 17.3684 11.8573 17.0761 11.6624 16.7282C11.4676 16.3803 11.3145 15.9628 11.2449 15.5035C11.1753 15.0443 11.1336 14.5711 11.1336 14.1118V13.7361C11.1336 13.249 11.1753 12.7897 11.2449 12.3305ZM13.917 0C6.23481 0 0 6.23481 0 13.917C0 21.5992 6.23481 27.834 13.917 27.834C21.5992 27.834 27.834 21.5992 27.834 13.917C27.834 6.23481 21.5992 0 13.917 0ZM13.917 25.0506C7.7796 25.0506 2.7834 20.0544 2.7834 13.917C2.7834 7.7796 7.7796 2.7834 13.917 2.7834C20.0544 2.7834 25.0506 7.7796 25.0506 13.917C25.0506 20.0544 20.0544 25.0506 13.917 25.0506Z" fill="#CED3E0"/>
</svg>
