<svg width="27" height="21" viewBox="0 0 27 21" fill="none" xmlns="http://www.w3.org/2000/svg">
<path fill-rule="evenodd" clip-rule="evenodd" d="M8.53223 0C8.91584 0.000593099 9.28846 0.12583 9.5957 0.355469L13.1768 3.04102H25.0449C25.5152 3.04114 25.9664 3.22802 26.2988 3.56055C26.6314 3.89314 26.8183 4.34412 26.8184 4.81445L26.8213 6.07227V19.7295C26.8212 20.2816 26.3832 20.7294 25.8311 20.7295H0.760742C0.559168 20.7295 0.366193 20.6971 0.223633 20.5547C0.0811122 20.4122 6.4601e-05 20.219 0 20.0176V1.77441C0 1.30396 0.187744 0.852173 0.520508 0.519531C0.852987 0.187157 1.30416 0 1.77441 0H8.53223ZM1.52051 4.61719L1.52539 19.251L25.3008 19.2568L25.2979 4.61719H1.52051ZM1.77441 1.52051C1.70728 1.52051 1.64233 1.54724 1.59473 1.59473C1.57753 1.61194 1.56319 1.63152 1.55176 1.65234C1.53174 1.68921 1.52051 1.73169 1.52051 1.77441V3.09668H10.7168L8.68359 1.57129C8.63981 1.53862 8.58692 1.52061 8.53223 1.52051H1.77441Z" fill="#5E7590"/>
</svg>
