<svg width="28" height="21" viewBox="0 0 28 21" fill="none" xmlns="http://www.w3.org/2000/svg">
<path d="M27.5372 7.83068C27.3728 7.60274 27.1566 7.41713 26.9064 7.28916C26.6561 7.16118 26.3791 7.0945 26.098 7.09461H23.8176V4.8142C23.8176 4.3438 23.6308 3.89266 23.2981 3.56004C22.9655 3.22742 22.5144 3.04055 22.044 3.04055H13.1757L9.59547 0.354731C9.2882 0.124961 8.91495 0.000545642 8.53127 0H1.77365C1.30325 0 0.852116 0.186867 0.519491 0.519491C0.186867 0.852116 0 1.30325 0 1.77365V20.0169C0 20.2186 0.0800856 20.4119 0.222639 20.5544C0.365192 20.697 0.558536 20.7771 0.760137 20.7771H23.4502C23.6097 20.7771 23.7651 20.7269 23.8945 20.6337C24.0238 20.5404 24.1206 20.4089 24.1711 20.2577L27.7805 9.4295C27.8696 9.1628 27.894 8.87874 27.8517 8.60076C27.8094 8.32277 27.7016 8.05882 27.5372 7.83068ZM1.77365 1.52027H8.53127C8.5861 1.52027 8.63944 1.53806 8.6833 1.57095L12.4663 4.4088C12.5978 4.50748 12.7579 4.56082 12.9223 4.56082H22.044C22.1112 4.56082 22.1756 4.58752 22.2231 4.63504C22.2707 4.68255 22.2974 4.747 22.2974 4.8142V7.09461H5.5452C5.17302 7.09463 4.81027 7.21173 4.50833 7.42932C4.20638 7.64691 3.98053 7.95398 3.86276 8.30703L1.52027 15.3294V1.77365C1.52027 1.70645 1.54697 1.64201 1.59449 1.59449C1.64201 1.54697 1.70645 1.52027 1.77365 1.52027ZM26.3388 8.94808L22.9029 19.2568H1.81546L5.30449 8.78845C5.32127 8.73789 5.35356 8.6939 5.39678 8.66275C5.43999 8.63159 5.49193 8.61484 5.5452 8.61489H26.098C26.1382 8.61485 26.1778 8.62435 26.2135 8.64261C26.2493 8.66086 26.2802 8.68735 26.3037 8.71989C26.3272 8.75243 26.3426 8.79008 26.3487 8.82976C26.3548 8.86943 26.3514 8.90999 26.3388 8.94808Z" fill="white"/>
</svg>
