<svg width="29" height="18" viewBox="0 0 29 18" fill="none" xmlns="http://www.w3.org/2000/svg">
<path d="M21.1399 3.47184C22.0984 3.47184 22.8755 2.69478 22.8755 1.73623C22.8755 0.777688 22.0984 0.000632286 21.1399 0.000632286C20.1814 0.000632286 19.4043 0.777688 19.4043 1.73623C19.4043 2.69478 20.1814 3.47184 21.1399 3.47184Z" fill="black"/>
<path d="M24.5154 5.3029C24.177 4.96445 23.5956 4.33964 22.4674 4.33964C22.2852 4.33964 21.2351 4.33964 20.2632 4.33964C17.8767 4.33096 15.9329 2.38709 15.9329 0.000632286H14.1973C14.1973 2.74288 16.0283 5.06859 18.5363 5.82358V17.3567H20.2719V12.1498H22.0075V17.3567H23.7431V6.98643L27.1709 10.4142L28.3945 9.19065L24.5154 5.3029Z" fill="black"/>
<path d="M7.25463 3.47184C6.29609 3.47184 5.51903 2.69478 5.51903 1.73623C5.51903 0.777688 6.29609 0.000632286 7.25463 0.000632286C8.21318 0.000632286 8.99023 0.777688 8.99023 1.73623C8.99023 2.69478 8.21318 3.47184 7.25463 3.47184Z" fill="black"/>
<path d="M3.87911 5.3029C4.21755 4.96445 4.79898 4.33964 5.92712 4.33964C6.10936 4.33964 7.1594 4.33964 8.13134 4.33964C10.5178 4.33096 12.4617 2.38709 12.4617 0.000632286H14.1973C14.1973 2.74288 12.3662 5.06859 9.85826 5.82358V17.3567H8.12266V12.1498H6.38706V17.3567H4.65145V6.98643L1.22364 10.4142L3.86115e-05 9.19065L3.87911 5.3029Z" fill="black"/>
</svg>
