<svg width="15" height="16" viewBox="0 0 15 16" fill="none" xmlns="http://www.w3.org/2000/svg">
<path d="M0 2C0 0.895431 0.895431 0 2 0H12.8557C13.9603 0 14.8557 0.895431 14.8557 2V13.4761C14.8557 14.5807 13.9603 15.4761 12.8557 15.4761H2C0.895431 15.4761 0 14.5807 0 13.4761V2ZM11.6723 5.52719C11.6723 4.94083 11.4488 4.37849 11.0508 3.96387C10.6528 3.54925 10.113 3.31632 9.5501 3.31632C8.98725 3.31632 8.44745 3.54925 8.04945 3.96387C7.65145 4.37849 7.42786 4.94083 7.42786 5.52719C7.42786 6.11355 7.65145 6.6759 8.04945 7.09052C8.44745 7.50514 8.98725 7.73807 9.5501 7.73807C10.113 7.73807 10.6528 7.50514 11.0508 7.09052C11.4488 6.6759 11.6723 6.11355 11.6723 5.52719ZM2.12224 13.2653H12.7335C12.7335 12.9433 12.5757 12.6417 12.3112 12.4581L11.4815 11.8819C10.8994 11.4778 10.1412 11.4297 9.51268 11.757C8.79816 12.1292 7.92684 12.0123 7.33574 11.4649L4.6485 8.97632C4.09346 8.46232 3.24304 8.44049 2.66236 8.92534C2.32008 9.21114 2.12224 9.63406 2.12224 10.08V13.2653Z" fill="white"/>
</svg>
