<svg width="182" height="182" viewBox="0 0 182 182" fill="none" xmlns="http://www.w3.org/2000/svg">
<path d="M98.8075 2.67415C100.027 -1.40784 106.029 -0.60662 106.135 3.6522L107.427 55.6964C107.496 58.4888 110.489 60.2239 112.947 58.8966L158.754 34.1573C162.502 32.1329 166.18 36.9441 163.243 40.0303L127.356 77.7447C125.431 79.7682 126.32 83.1114 128.996 83.9107L178.88 98.8075C182.962 100.027 182.161 106.029 177.902 106.135L125.858 107.427C123.065 107.496 121.33 110.489 122.657 112.947L147.397 158.754C149.421 162.502 144.61 166.18 141.524 163.243L103.809 127.356C101.786 125.431 98.4425 126.32 97.6433 128.996L82.7465 178.88C81.5274 182.962 75.5246 182.161 75.4189 177.902L74.1269 125.858C74.0576 123.065 71.0647 121.33 68.607 122.657L22.8004 147.397C19.052 149.421 15.374 144.61 18.3106 141.524L54.1979 103.809C56.1234 101.786 55.234 98.4425 52.5576 97.6433L2.67415 82.7465C-1.40784 81.5274 -0.60662 75.5246 3.6522 75.4189L55.6964 74.1269C58.4888 74.0576 60.2239 71.0647 58.8966 68.607L34.1573 22.8004C32.1329 19.052 36.9441 15.374 40.0303 18.3106L77.7447 54.1979C79.7682 56.1234 83.1114 55.234 83.9107 52.5576L98.8075 2.67415Z" fill="#005EFF"/>
</svg>
