<svg width="96" height="25" viewBox="0 0 96 25" fill="none" xmlns="http://www.w3.org/2000/svg">
<path d="M11.7576 17.0977C11.2337 17.1845 10.7099 17.2135 10.186 17.2135C9.37112 17.2135 8.73086 16.982 8.29432 16.5481C7.85778 16.1141 7.62495 15.4198 7.62495 14.4651L7.62495 7.84008L13.6201 7.84008L13.6201 4.97599L7.62495 4.97599L7.62495 0L3.87068 0L3.87068 4.97599L0 4.97599L0 7.84008L3.87068 7.84008L3.87068 14.9569C3.87068 16.6638 4.39454 17.9656 5.41314 18.8335C6.43174 19.7014 7.88688 20.1643 9.74946 20.1643C10.6225 20.1643 11.4083 20.1065 12.1068 19.9907C12.8053 19.875 13.3873 19.7304 13.853 19.5568L13.3582 16.7216C12.8344 16.8952 12.3105 17.0399 11.7867 17.0977H11.7576Z" fill="#CED3E0"/>
<path d="M24.3014 17.0979C23.7484 17.3872 23.0209 17.5319 22.0605 17.5319C20.9837 17.5319 20.1979 17.3004 19.674 16.8086C19.1502 16.3168 18.9174 15.5936 18.9174 14.6099V13.1634L28.6668 13.1634V10.5597C28.6668 8.65032 28.0557 7.20382 26.8624 6.22019C25.6692 5.23656 24.0104 4.71582 21.9441 4.71582C19.8778 4.71582 18.2189 5.20763 16.9966 6.19126C15.7742 7.17488 15.1631 8.59246 15.1631 10.444V14.4074C15.1631 16.2879 15.8033 17.7055 17.0548 18.6602C18.3062 19.6149 19.9651 20.0777 22.0023 20.0777C24.0395 20.0777 25.5819 19.8174 26.5714 19.2677C27.5609 18.718 28.3467 17.7633 28.8705 16.4325L25.611 15.5357C25.2618 16.259 24.8252 16.7797 24.2723 17.0401L24.3014 17.0979ZM18.9465 10.2126C18.9465 9.17107 19.1793 8.41888 19.6449 7.956C20.1106 7.49312 20.8672 7.26168 21.9441 7.26168C23.0209 7.26168 23.7775 7.49312 24.2432 7.98493C24.7088 8.47674 24.9417 9.28679 24.9417 10.444V10.9937L18.9465 10.9937V10.2126Z" fill="#CED3E0"/>
<path d="M40.6223 5.40994C40.0985 5.20743 39.5455 5.06278 38.9635 4.94706C38.3814 4.83134 37.7993 4.77348 37.1882 4.77348C35.2092 4.77348 33.6667 5.26529 32.5317 6.27785C31.4258 7.26147 30.8438 8.65012 30.8438 10.4149L30.8438 14.8122C30.8438 16.3745 31.2512 17.6474 32.037 18.631C32.8227 19.6147 33.9578 20.1354 35.4129 20.1354C36.4024 20.1354 37.3046 19.875 38.0613 19.3832C38.847 18.8914 39.4291 18.1681 39.8365 17.2713H40.5932V19.875L44.3475 19.875V0L40.5932 0V5.38101L40.6223 5.40994ZM40.6223 15.1594C40.0112 15.7959 39.4291 16.2877 38.847 16.6059C38.265 16.9241 37.6538 17.0688 36.9845 17.0688C36.2278 17.0688 35.6166 16.8374 35.2092 16.4034C34.8017 15.9695 34.598 15.2462 34.598 14.3204V10.4438C34.598 9.48909 34.8599 8.76584 35.3547 8.30296C35.8494 7.84008 36.6352 7.60863 37.6538 7.60863C38.1777 7.60863 38.7015 7.66649 39.1963 7.81114C39.691 7.9558 40.1567 8.12938 40.5641 8.41868V15.1883L40.6223 15.1594Z" fill="#CED3E0"/>
<path d="M56.0501 4.71582C55.0897 4.71582 54.1875 4.97619 53.4017 5.49693C52.616 6.01768 52.0048 6.712 51.5974 7.57991L50.8407 7.57991V4.97619L47.0864 4.97619V24.8512H50.8407V19.4413C51.3645 19.6438 51.9175 19.8174 52.5287 19.9331C53.1398 20.0488 53.7219 20.1067 54.2748 20.1067C56.2247 20.1067 57.7672 19.5859 58.9022 18.5734C60.0372 17.5608 60.5902 16.1722 60.5902 14.4653V10.0679C60.5902 8.41888 60.1827 7.14595 59.3678 6.19126C58.553 5.23656 57.447 4.77368 56.0501 4.77368V4.71582ZM56.8359 14.3785C56.8359 15.3911 56.6031 16.1143 56.1083 16.5483C55.6136 16.9822 54.8569 17.2137 53.8092 17.2137C53.198 17.2137 52.6742 17.1558 52.2376 17.0111C51.8011 16.8665 51.3354 16.6929 50.8698 16.4036V9.66288C51.481 8.99748 52.0921 8.50567 52.6451 8.18744C53.2271 7.86921 53.8383 7.72456 54.4786 7.72456C55.2643 7.72456 55.8464 7.956 56.2538 8.38995C56.6613 8.8239 56.865 9.51823 56.865 10.4729V14.3496L56.8359 14.3785Z" fill="#CED3E0"/>
<path d="M93.4288 6.1915C92.2647 5.17895 90.6059 4.6582 88.4814 4.6582C86.3569 4.6582 84.698 5.15002 83.5048 6.16257C82.3116 7.17513 81.7295 8.56378 81.7295 10.3864V14.4077C81.7295 16.2013 82.3116 17.59 83.5048 18.5736C84.698 19.5572 86.3569 20.0491 88.4814 20.0491C90.6059 20.0491 92.2647 19.5572 93.458 18.5736C94.6512 17.59 95.2332 16.2303 95.2332 14.4366V10.4153C95.2332 8.59271 94.6512 7.17513 93.458 6.16257L93.4288 6.1915ZM91.4499 14.2919C91.4499 15.2756 91.217 16.0278 90.7223 16.4906C90.2275 16.9535 89.4709 17.185 88.4523 17.185C87.4337 17.185 86.6479 16.9535 86.1822 16.4617C85.6875 15.9699 85.4547 15.2177 85.4547 14.2052V10.4442C85.4547 9.43168 85.6875 8.6795 86.1822 8.21661C86.677 7.7248 87.4337 7.49336 88.4523 7.49336C89.4709 7.49336 90.2566 7.7248 90.7223 8.21661C91.1879 8.70843 91.4499 9.46061 91.4499 10.4732V14.263V14.2919Z" fill="#CED3E0"/>
<path d="M74.1 4.86084H71.5972V7.72493H74.1V16.8958H71.5972V19.7599H80.3571V16.8958H77.8543V7.72493L80.3571 7.72493V4.86084L77.8543 4.86084L74.1 4.86084Z" fill="#CED3E0"/>
<path d="M66.12 13.2983C64.2449 13.2983 62.7246 14.8096 62.7246 16.6736C62.7246 18.5375 64.2449 20.0488 66.12 20.0488C67.995 20.0488 69.5154 18.5375 69.5154 16.6736C69.5154 14.8096 67.995 13.2983 66.12 13.2983Z" fill="#CED3E0"/>
</svg>
