<svg width="44" height="44" viewBox="0 0 44 44" fill="none" xmlns="http://www.w3.org/2000/svg" aria-hidden="true">
  <path d="M29.7869 5.92725C33.3374 5.92725 36.2664 8.66249 36.4441 12.1919L36.8885 31.0757C36.9772 34.6494 34.0924 37.5609 30.5418 37.561H12.2557C9.99209 37.561 8.17265 35.7526 8.17265 33.5024V25.8696C8.17265 23.1342 10.3916 20.9282 13.1433 20.9282C15.8507 20.9724 18.0701 23.1344 18.0701 25.8257C18.1144 27.458 17.3153 28.8699 16.117 29.7964C15.8507 30.017 15.5394 30.2373 15.1844 30.3696L11.1902 32.7524C11.1015 32.7966 11.0573 32.8851 10.9685 32.9292C9.90343 33.8999 10.6133 35.7085 12.0779 35.7085H17.3152C19.3569 35.7085 20.9988 34.0759 20.9988 32.0464V27.1489C20.9989 24.6784 23.0849 22.6489 25.5701 22.7368C27.9668 22.8251 29.8757 24.7665 29.8758 27.1489C29.8758 28.5606 29.2102 29.8401 28.1453 30.6343C27.9678 30.7666 27.79 30.8996 27.5682 30.9878C27.3464 31.1201 27.08 31.252 26.8582 31.3843L23.7508 33.2378C23.7064 33.2818 23.6619 33.2817 23.6619 33.2817C22.6413 34.0318 23.1738 35.6643 24.4607 35.6646H30.408C33.0266 35.6646 35.1579 33.5022 35.0691 30.855L34.8914 26.0024C34.7139 23.8848 33.3378 22.12 31.4295 21.811L12.5223 19.1636C10.8802 18.943 9.504 18.2368 8.48319 17.2222C7.46237 16.2074 6.79647 14.8834 6.61894 13.3833C6.13088 9.41258 9.23777 5.92725 13.2322 5.92725H29.7869ZM30.3201 12.105C28.6781 12.105 27.3467 13.4288 27.3465 15.061C27.3465 16.6935 28.6779 18.0171 30.3201 18.0171C31.9623 18.0171 33.2937 16.6935 33.2937 15.061C33.2935 13.4288 31.9622 12.105 30.3201 12.105Z" fill="#CED3E0"/>
</svg>
