<svg width="15" height="16" viewBox="0 0 24 24" fill="none" xmlns="http://www.w3.org/2000/svg">
  <path fill-rule="evenodd" clip-rule="evenodd" d="M5.5 6.25C5.5 3.75 8.25 1.75 11.75 1.75C16.5 1.75 20.75 5.25 21.25 9.75C21.75 14 18.75 18 14.25 19C11.75 19.5 9.25 18.75 7.5 17C5.5 15 4.75 12.25 5.25 9.5C5.4 8.25 5.5 7 5.5 6.25ZM7.25 9.25C6.35 9.25 5.6 10 5.6 10.9C5.6 11.8 6.35 12.55 7.25 12.55C8.15 12.55 8.9 11.8 8.9 10.9C8.9 10 8.15 9.25 7.25 9.25ZM10.75 7.75C9.85 7.75 9.1 8.5 9.1 9.4C9.1 10.3 9.85 11.05 10.75 11.05C11.65 11.05 12.4 10.3 12.4 9.4C12.4 8.5 11.65 7.75 10.75 7.75ZM14.25 7.75C13.35 7.75 12.6 8.5 12.6 9.4C12.6 10.3 13.35 11.05 14.25 11.05C15.15 11.05 15.9 10.3 15.9 9.4C15.9 8.5 15.15 7.75 14.25 7.75ZM17.75 9.25C16.85 9.25 16.1 10 16.1 10.9C16.1 11.8 16.85 12.55 17.75 12.55C18.65 12.55 19.4 11.8 19.4 10.9C19.4 10 18.65 9.25 17.75 9.25ZM6.25 17.5C5.15 17.5 4.25 18.4 4.25 19.5C4.25 20.6 5.15 21.5 6.25 21.5C7.35 21.5 8.25 20.6 8.25 19.5C8.25 18.4 7.35 17.5 6.25 17.5Z" fill="white"/>
</svg>
