<svg width="34" height="34" viewBox="0 0 34 34" fill="none" xmlns="http://www.w3.org/2000/svg">
<path d="M30.0005 12.2868C29.6254 11.9117 29.4147 11.403 29.4147 10.8726V6.35567C29.4147 5.2511 28.5193 4.35567 27.4147 4.35567H22.8978C22.3673 4.35567 21.8586 4.14496 21.4836 3.76988L18.2995 0.585843C17.5185 -0.195206 16.2521 -0.195204 15.4711 0.585844L12.2871 3.76988C11.912 4.14496 11.4033 4.35567 10.8728 4.35567H6.35591C5.25134 4.35567 4.35591 5.2511 4.35591 6.35567V10.8726C4.35591 11.403 4.1452 11.9117 3.77013 12.2868L0.586087 15.4709C-0.194961 16.2519 -0.19496 17.5182 0.586088 18.2993L3.77013 21.4833C4.1452 21.8584 4.35591 22.3671 4.35591 22.8975V27.4145C4.35591 28.519 5.25134 29.4145 6.35591 29.4145H10.8728C11.4033 29.4145 11.912 29.6252 12.2871 30.0003L15.4711 33.1843C16.2522 33.9653 17.5185 33.9653 18.2995 33.1843L21.4836 30.0003C21.8586 29.6252 22.3673 29.4145 22.8978 29.4145H27.4147C28.5193 29.4145 29.4147 28.519 29.4147 27.4145V22.8975C29.4147 22.3671 29.6254 21.8584 30.0005 21.4833L33.1845 18.2993C33.9656 17.5182 33.9656 16.2519 33.1845 15.4709L30.0005 12.2868ZM16.8853 26.2821C11.7013 26.2821 7.48826 22.0691 7.48826 16.8851C7.48826 11.701 11.7013 7.48802 16.8853 7.48802C22.0694 7.48802 26.2824 11.701 26.2824 16.8851C26.2824 22.0691 22.0694 26.2821 16.8853 26.2821ZM16.8853 10.6204C13.4241 10.6204 10.6206 13.4238 10.6206 16.8851C10.6206 20.3463 13.4241 23.1498 16.8853 23.1498C20.3466 23.1498 23.15 20.3463 23.15 16.8851C23.15 13.4238 20.3466 10.6204 16.8853 10.6204Z" fill="#005EFF"/>
</svg>
