<svg width="30" height="19" viewBox="0 0 30 19" fill="none" xmlns="http://www.w3.org/2000/svg">
  <g class="showreel-icon-body">
    <path d="M20.5835 10.6667L27.9827 15.5996C28.0894 15.6705 28.2133 15.7113 28.3413 15.7174C28.4693 15.7235 28.5965 15.6948 28.7095 15.6343C28.8225 15.5738 28.9169 15.4839 28.9828 15.374C29.0486 15.2641 29.0834 15.1383 29.0835 15.0102V3.39922C29.0835 3.27458 29.0507 3.15215 28.9883 3.04427C28.9258 2.93639 28.8361 2.84689 28.728 2.78481C28.6199 2.72272 28.4974 2.69025 28.3728 2.69068C28.2481 2.6911 28.1258 2.7244 28.0182 2.78722L20.5835 7.12505" stroke="currentColor" stroke-width="1.5" stroke-linecap="round" stroke-linejoin="round"/>
    <path d="M17.75 0.75H3.58333C2.01853 0.75 0.75 2.01853 0.75 3.58333V14.9167C0.75 16.4815 2.01853 17.75 3.58333 17.75H17.75C19.3148 17.75 20.5833 16.4815 20.5833 14.9167V3.58333C20.5833 2.01853 19.3148 0.75 17.75 0.75Z" stroke="currentColor" stroke-width="1.5" stroke-linecap="round" stroke-linejoin="round"/>
  </g>
  <g class="showreel-icon-reel">
    <g transform="translate(10.5164 9.2044)">
      <g class="showreel-icon-reel-rotator">
        <circle cx="0" cy="-4.0598" r="1.06864" fill="currentColor"/>
        <circle cx="0" cy="4.0598" r="1.06864" fill="currentColor"/>
        <circle cx="4.0601" cy="0" r="1.06864" fill="currentColor"/>
        <circle cx="-4.0596" cy="0" r="1.06864" fill="currentColor"/>
        <circle cx="0" cy="0" r="1.7199" stroke="currentColor" stroke-width="0.5" stroke-linecap="round" stroke-linejoin="round"/>
        <circle cx="0" cy="0" r="6.59131" stroke="currentColor" stroke-width="0.5" stroke-linecap="round" stroke-linejoin="round"/>
      </g>
    </g>
  </g>
</svg>
