<svg width="22" height="21" viewBox="0 0 22 21" fill="none" xmlns="http://www.w3.org/2000/svg">
<path d="M21.0827 7.31677C21.0827 3.27164 17.8111 0 13.766 0C9.72085 0 6.44921 3.27164 6.44921 7.31677C6.44921 10.9438 9.08324 13.9437 12.543 14.5186V18.6368H4.18101V15.5011H5.22626V11.3201C5.22626 10.7452 4.7559 10.2748 4.18101 10.2748H1.04525C0.470363 10.2748 0 10.7452 0 11.3201V15.5011H1.04525V20.7274H17.7693V18.6368H14.6335V14.5813C18.2606 14.1527 21.0827 11.0692 21.0827 7.31677ZM2.61313 9.22958C3.48069 9.22958 4.18101 8.52926 4.18101 7.6617C4.18101 6.79414 3.48069 6.09382 2.61313 6.09382C1.74557 6.09382 1.04525 6.79414 1.04525 7.6617C1.04525 8.52926 1.74557 9.22958 2.61313 9.22958Z" fill="#929292"/>
</svg>
